<?xml version="1.0" encoding="utf-8" standalone="no"?>
<!DOCTYPE svg PUBLIC "-//W3C//DTD SVG 1.1//EN"
  "http://www.w3.org/Graphics/SVG/1.1/DTD/svg11.dtd">
<!-- Created with matplotlib (http://matplotlib.org/) -->
<svg height="705pt" version="1.1" viewBox="0 0 1382 705" width="1382pt" xmlns="http://www.w3.org/2000/svg" xmlns:xlink="http://www.w3.org/1999/xlink">
 <defs>
  <style type="text/css">
*{stroke-linecap:butt;stroke-linejoin:round;}
  </style>
 </defs>
 <g id="figure_1">
  <g id="patch_1">
   <path d="M 0 705.6 
L 1382.4 705.6 
L 1382.4 0 
L 0 0 
z
" style="fill:#ffffff;"/>
  </g>
  <g id="axes_1">
   <g id="patch_2">
    <path d="M 172.8 627.984 
L 1244.16 627.984 
L 1244.16 84.672 
L 172.8 84.672 
z
" style="fill:#ffffff;"/>
   </g>
   <g id="matplotlib.axis_1">
    <g id="xtick_1">
     <g id="line2d_1">
      <defs>
       <path d="M 0 0 
L 0 3.5 
" id="m1bea7ccec6" style="stroke:#000000;stroke-width:0.8;"/>
      </defs>
      <g>
       <use style="stroke:#000000;stroke-width:0.8;" x="296.418462" xlink:href="#m1bea7ccec6" y="627.984"/>
      </g>
     </g>
     <g id="text_1">
      <!-- −0.1 -->
      <defs>
       <path d="M 10.59375 35.5 
L 73.1875 35.5 
L 73.1875 27.203125 
L 10.59375 27.203125 
z
" id="DejaVuSans-2212"/>
       <path d="M 31.78125 66.40625 
Q 24.171875 66.40625 20.328125 58.90625 
Q 16.5 51.421875 16.5 36.375 
Q 16.5 21.390625 20.328125 13.890625 
Q 24.171875 6.390625 31.78125 6.390625 
Q 39.453125 6.390625 43.28125 13.890625 
Q 47.125 21.390625 47.125 36.375 
Q 47.125 51.421875 43.28125 58.90625 
Q 39.453125 66.40625 31.78125 66.40625 
M 31.78125 74.21875 
Q 44.046875 74.21875 50.515625 64.515625 
Q 56.984375 54.828125 56.984375 36.375 
Q 56.984375 17.96875 50.515625 8.265625 
Q 44.046875 -1.421875 31.78125 -1.421875 
Q 19.53125 -1.421875 13.0625 8.265625 
Q 6.59375 17.96875 6.59375 36.375 
Q 6.59375 54.828125 13.0625 64.515625 
Q 19.53125 74.21875 31.78125 74.21875 
" id="DejaVuSans-30"/>
       <path d="M 10.6875 12.40625 
L 21 12.40625 
L 21 0 
L 10.6875 0 
z
" id="DejaVuSans-2e"/>
       <path d="M 12.40625 8.296875 
L 28.515625 8.296875 
L 28.515625 63.921875 
L 10.984375 60.40625 
L 10.984375 69.390625 
L 28.421875 72.90625 
L 38.28125 72.90625 
L 38.28125 8.296875 
L 54.390625 8.296875 
L 54.390625 0 
L 12.40625 0 
z
" id="DejaVuSans-31"/>
      </defs>
      <g transform="translate(284.277055 642.582437)scale(0.1 -0.1)">
       <use xlink:href="#DejaVuSans-2212"/>
       <use x="83.789062" xlink:href="#DejaVuSans-30"/>
       <use x="147.412109" xlink:href="#DejaVuSans-2e"/>
       <use x="179.199219" xlink:href="#DejaVuSans-31"/>
      </g>
     </g>
    </g>
    <g id="xtick_2">
     <g id="line2d_2">
      <g>
       <use style="stroke:#000000;stroke-width:0.8;" x="446.259021" xlink:href="#m1bea7ccec6" y="627.984"/>
      </g>
     </g>
     <g id="text_2">
      <!-- 0.0 -->
      <g transform="translate(438.307458 642.582437)scale(0.1 -0.1)">
       <use xlink:href="#DejaVuSans-30"/>
       <use x="63.623047" xlink:href="#DejaVuSans-2e"/>
       <use x="95.410156" xlink:href="#DejaVuSans-30"/>
      </g>
     </g>
    </g>
    <g id="xtick_3">
     <g id="line2d_3">
      <g>
       <use style="stroke:#000000;stroke-width:0.8;" x="596.09958" xlink:href="#m1bea7ccec6" y="627.984"/>
      </g>
     </g>
     <g id="text_3">
      <!-- 0.1 -->
      <g transform="translate(588.148018 642.582437)scale(0.1 -0.1)">
       <use xlink:href="#DejaVuSans-30"/>
       <use x="63.623047" xlink:href="#DejaVuSans-2e"/>
       <use x="95.410156" xlink:href="#DejaVuSans-31"/>
      </g>
     </g>
    </g>
    <g id="xtick_4">
     <g id="line2d_4">
      <g>
       <use style="stroke:#000000;stroke-width:0.8;" x="745.94014" xlink:href="#m1bea7ccec6" y="627.984"/>
      </g>
     </g>
     <g id="text_4">
      <!-- 0.2 -->
      <defs>
       <path d="M 19.1875 8.296875 
L 53.609375 8.296875 
L 53.609375 0 
L 7.328125 0 
L 7.328125 8.296875 
Q 12.9375 14.109375 22.625 23.890625 
Q 32.328125 33.6875 34.8125 36.53125 
Q 39.546875 41.84375 41.421875 45.53125 
Q 43.3125 49.21875 43.3125 52.78125 
Q 43.3125 58.59375 39.234375 62.25 
Q 35.15625 65.921875 28.609375 65.921875 
Q 23.96875 65.921875 18.8125 64.3125 
Q 13.671875 62.703125 7.8125 59.421875 
L 7.8125 69.390625 
Q 13.765625 71.78125 18.9375 73 
Q 24.125 74.21875 28.421875 74.21875 
Q 39.75 74.21875 46.484375 68.546875 
Q 53.21875 62.890625 53.21875 53.421875 
Q 53.21875 48.921875 51.53125 44.890625 
Q 49.859375 40.875 45.40625 35.40625 
Q 44.1875 33.984375 37.640625 27.21875 
Q 31.109375 20.453125 19.1875 8.296875 
" id="DejaVuSans-32"/>
      </defs>
      <g transform="translate(737.988577 642.582437)scale(0.1 -0.1)">
       <use xlink:href="#DejaVuSans-30"/>
       <use x="63.623047" xlink:href="#DejaVuSans-2e"/>
       <use x="95.410156" xlink:href="#DejaVuSans-32"/>
      </g>
     </g>
    </g>
    <g id="xtick_5">
     <g id="line2d_5">
      <g>
       <use style="stroke:#000000;stroke-width:0.8;" x="895.780699" xlink:href="#m1bea7ccec6" y="627.984"/>
      </g>
     </g>
     <g id="text_5">
      <!-- 0.3 -->
      <defs>
       <path d="M 40.578125 39.3125 
Q 47.65625 37.796875 51.625 33 
Q 55.609375 28.21875 55.609375 21.1875 
Q 55.609375 10.40625 48.1875 4.484375 
Q 40.765625 -1.421875 27.09375 -1.421875 
Q 22.515625 -1.421875 17.65625 -0.515625 
Q 12.796875 0.390625 7.625 2.203125 
L 7.625 11.71875 
Q 11.71875 9.328125 16.59375 8.109375 
Q 21.484375 6.890625 26.8125 6.890625 
Q 36.078125 6.890625 40.9375 10.546875 
Q 45.796875 14.203125 45.796875 21.1875 
Q 45.796875 27.640625 41.28125 31.265625 
Q 36.765625 34.90625 28.71875 34.90625 
L 20.21875 34.90625 
L 20.21875 43.015625 
L 29.109375 43.015625 
Q 36.375 43.015625 40.234375 45.921875 
Q 44.09375 48.828125 44.09375 54.296875 
Q 44.09375 59.90625 40.109375 62.90625 
Q 36.140625 65.921875 28.71875 65.921875 
Q 24.65625 65.921875 20.015625 65.03125 
Q 15.375 64.15625 9.8125 62.3125 
L 9.8125 71.09375 
Q 15.4375 72.65625 20.34375 73.4375 
Q 25.25 74.21875 29.59375 74.21875 
Q 40.828125 74.21875 47.359375 69.109375 
Q 53.90625 64.015625 53.90625 55.328125 
Q 53.90625 49.265625 50.4375 45.09375 
Q 46.96875 40.921875 40.578125 39.3125 
" id="DejaVuSans-33"/>
      </defs>
      <g transform="translate(887.829137 642.582437)scale(0.1 -0.1)">
       <use xlink:href="#DejaVuSans-30"/>
       <use x="63.623047" xlink:href="#DejaVuSans-2e"/>
       <use x="95.410156" xlink:href="#DejaVuSans-33"/>
      </g>
     </g>
    </g>
    <g id="xtick_6">
     <g id="line2d_6">
      <g>
       <use style="stroke:#000000;stroke-width:0.8;" x="1045.621259" xlink:href="#m1bea7ccec6" y="627.984"/>
      </g>
     </g>
     <g id="text_6">
      <!-- 0.4 -->
      <defs>
       <path d="M 37.796875 64.3125 
L 12.890625 25.390625 
L 37.796875 25.390625 
z
M 35.203125 72.90625 
L 47.609375 72.90625 
L 47.609375 25.390625 
L 58.015625 25.390625 
L 58.015625 17.1875 
L 47.609375 17.1875 
L 47.609375 0 
L 37.796875 0 
L 37.796875 17.1875 
L 4.890625 17.1875 
L 4.890625 26.703125 
z
" id="DejaVuSans-34"/>
      </defs>
      <g transform="translate(1037.669696 642.582437)scale(0.1 -0.1)">
       <use xlink:href="#DejaVuSans-30"/>
       <use x="63.623047" xlink:href="#DejaVuSans-2e"/>
       <use x="95.410156" xlink:href="#DejaVuSans-34"/>
      </g>
     </g>
    </g>
    <g id="xtick_7">
     <g id="line2d_7">
      <g>
       <use style="stroke:#000000;stroke-width:0.8;" x="1195.461818" xlink:href="#m1bea7ccec6" y="627.984"/>
      </g>
     </g>
     <g id="text_7">
      <!-- 0.5 -->
      <defs>
       <path d="M 10.796875 72.90625 
L 49.515625 72.90625 
L 49.515625 64.59375 
L 19.828125 64.59375 
L 19.828125 46.734375 
Q 21.96875 47.46875 24.109375 47.828125 
Q 26.265625 48.1875 28.421875 48.1875 
Q 40.625 48.1875 47.75 41.5 
Q 54.890625 34.8125 54.890625 23.390625 
Q 54.890625 11.625 47.5625 5.09375 
Q 40.234375 -1.421875 26.90625 -1.421875 
Q 22.3125 -1.421875 17.546875 -0.640625 
Q 12.796875 0.140625 7.71875 1.703125 
L 7.71875 11.625 
Q 12.109375 9.234375 16.796875 8.0625 
Q 21.484375 6.890625 26.703125 6.890625 
Q 35.15625 6.890625 40.078125 11.328125 
Q 45.015625 15.765625 45.015625 23.390625 
Q 45.015625 31 40.078125 35.4375 
Q 35.15625 39.890625 26.703125 39.890625 
Q 22.75 39.890625 18.8125 39.015625 
Q 14.890625 38.140625 10.796875 36.28125 
z
" id="DejaVuSans-35"/>
      </defs>
      <g transform="translate(1187.510256 642.582437)scale(0.1 -0.1)">
       <use xlink:href="#DejaVuSans-30"/>
       <use x="63.623047" xlink:href="#DejaVuSans-2e"/>
       <use x="95.410156" xlink:href="#DejaVuSans-35"/>
      </g>
     </g>
    </g>
    <g id="text_8">
     <!-- epsilon -->
     <defs>
      <path d="M 56.203125 29.59375 
L 56.203125 25.203125 
L 14.890625 25.203125 
Q 15.484375 15.921875 20.484375 11.0625 
Q 25.484375 6.203125 34.421875 6.203125 
Q 39.59375 6.203125 44.453125 7.46875 
Q 49.3125 8.734375 54.109375 11.28125 
L 54.109375 2.78125 
Q 49.265625 0.734375 44.1875 -0.34375 
Q 39.109375 -1.421875 33.890625 -1.421875 
Q 20.796875 -1.421875 13.15625 6.1875 
Q 5.515625 13.8125 5.515625 26.8125 
Q 5.515625 40.234375 12.765625 48.109375 
Q 20.015625 56 32.328125 56 
Q 43.359375 56 49.78125 48.890625 
Q 56.203125 41.796875 56.203125 29.59375 
M 47.21875 32.234375 
Q 47.125 39.59375 43.09375 43.984375 
Q 39.0625 48.390625 32.421875 48.390625 
Q 24.90625 48.390625 20.390625 44.140625 
Q 15.875 39.890625 15.1875 32.171875 
z
" id="DejaVuSans-65"/>
      <path d="M 18.109375 8.203125 
L 18.109375 -20.796875 
L 9.078125 -20.796875 
L 9.078125 54.6875 
L 18.109375 54.6875 
L 18.109375 46.390625 
Q 20.953125 51.265625 25.265625 53.625 
Q 29.59375 56 35.59375 56 
Q 45.5625 56 51.78125 48.09375 
Q 58.015625 40.1875 58.015625 27.296875 
Q 58.015625 14.40625 51.78125 6.484375 
Q 45.5625 -1.421875 35.59375 -1.421875 
Q 29.59375 -1.421875 25.265625 0.953125 
Q 20.953125 3.328125 18.109375 8.203125 
M 48.6875 27.296875 
Q 48.6875 37.203125 44.609375 42.84375 
Q 40.53125 48.484375 33.40625 48.484375 
Q 26.265625 48.484375 22.1875 42.84375 
Q 18.109375 37.203125 18.109375 27.296875 
Q 18.109375 17.390625 22.1875 11.75 
Q 26.265625 6.109375 33.40625 6.109375 
Q 40.53125 6.109375 44.609375 11.75 
Q 48.6875 17.390625 48.6875 27.296875 
" id="DejaVuSans-70"/>
      <path d="M 44.28125 53.078125 
L 44.28125 44.578125 
Q 40.484375 46.53125 36.375 47.5 
Q 32.28125 48.484375 27.875 48.484375 
Q 21.1875 48.484375 17.84375 46.4375 
Q 14.5 44.390625 14.5 40.28125 
Q 14.5 37.15625 16.890625 35.375 
Q 19.28125 33.59375 26.515625 31.984375 
L 29.59375 31.296875 
Q 39.15625 29.25 43.1875 25.515625 
Q 47.21875 21.78125 47.21875 15.09375 
Q 47.21875 7.46875 41.1875 3.015625 
Q 35.15625 -1.421875 24.609375 -1.421875 
Q 20.21875 -1.421875 15.453125 -0.5625 
Q 10.6875 0.296875 5.421875 2 
L 5.421875 11.28125 
Q 10.40625 8.6875 15.234375 7.390625 
Q 20.0625 6.109375 24.8125 6.109375 
Q 31.15625 6.109375 34.5625 8.28125 
Q 37.984375 10.453125 37.984375 14.40625 
Q 37.984375 18.0625 35.515625 20.015625 
Q 33.0625 21.96875 24.703125 23.78125 
L 21.578125 24.515625 
Q 13.234375 26.265625 9.515625 29.90625 
Q 5.8125 33.546875 5.8125 39.890625 
Q 5.8125 47.609375 11.28125 51.796875 
Q 16.75 56 26.8125 56 
Q 31.78125 56 36.171875 55.265625 
Q 40.578125 54.546875 44.28125 53.078125 
" id="DejaVuSans-73"/>
      <path d="M 9.421875 54.6875 
L 18.40625 54.6875 
L 18.40625 0 
L 9.421875 0 
z
M 9.421875 75.984375 
L 18.40625 75.984375 
L 18.40625 64.59375 
L 9.421875 64.59375 
z
" id="DejaVuSans-69"/>
      <path d="M 9.421875 75.984375 
L 18.40625 75.984375 
L 18.40625 0 
L 9.421875 0 
z
" id="DejaVuSans-6c"/>
      <path d="M 30.609375 48.390625 
Q 23.390625 48.390625 19.1875 42.75 
Q 14.984375 37.109375 14.984375 27.296875 
Q 14.984375 17.484375 19.15625 11.84375 
Q 23.34375 6.203125 30.609375 6.203125 
Q 37.796875 6.203125 41.984375 11.859375 
Q 46.1875 17.53125 46.1875 27.296875 
Q 46.1875 37.015625 41.984375 42.703125 
Q 37.796875 48.390625 30.609375 48.390625 
M 30.609375 56 
Q 42.328125 56 49.015625 48.375 
Q 55.71875 40.765625 55.71875 27.296875 
Q 55.71875 13.875 49.015625 6.21875 
Q 42.328125 -1.421875 30.609375 -1.421875 
Q 18.84375 -1.421875 12.171875 6.21875 
Q 5.515625 13.875 5.515625 27.296875 
Q 5.515625 40.765625 12.171875 48.375 
Q 18.84375 56 30.609375 56 
" id="DejaVuSans-6f"/>
      <path d="M 54.890625 33.015625 
L 54.890625 0 
L 45.90625 0 
L 45.90625 32.71875 
Q 45.90625 40.484375 42.875 44.328125 
Q 39.84375 48.1875 33.796875 48.1875 
Q 26.515625 48.1875 22.3125 43.546875 
Q 18.109375 38.921875 18.109375 30.90625 
L 18.109375 0 
L 9.078125 0 
L 9.078125 54.6875 
L 18.109375 54.6875 
L 18.109375 46.1875 
Q 21.34375 51.125 25.703125 53.5625 
Q 30.078125 56 35.796875 56 
Q 45.21875 56 50.046875 50.171875 
Q 54.890625 44.34375 54.890625 33.015625 
" id="DejaVuSans-6e"/>
     </defs>
     <g transform="translate(654.894844 671.457437)scale(0.3 -0.3)">
      <use xlink:href="#DejaVuSans-65"/>
      <use x="61.523438" xlink:href="#DejaVuSans-70"/>
      <use x="125" xlink:href="#DejaVuSans-73"/>
      <use x="177.099609" xlink:href="#DejaVuSans-69"/>
      <use x="204.882812" xlink:href="#DejaVuSans-6c"/>
      <use x="232.666016" xlink:href="#DejaVuSans-6f"/>
      <use x="293.847656" xlink:href="#DejaVuSans-6e"/>
     </g>
    </g>
   </g>
   <g id="matplotlib.axis_2">
    <g id="ytick_1">
     <g id="line2d_8">
      <defs>
       <path d="M 0 0 
L -3.5 0 
" id="m0b2e081861" style="stroke:#000000;stroke-width:0.8;"/>
      </defs>
      <g>
       <use style="stroke:#000000;stroke-width:0.8;" x="172.8" xlink:href="#m0b2e081861" y="603.676337"/>
      </g>
     </g>
     <g id="text_9">
      <!-- 0.0 -->
      <g transform="translate(149.896875 607.475556)scale(0.1 -0.1)">
       <use xlink:href="#DejaVuSans-30"/>
       <use x="63.623047" xlink:href="#DejaVuSans-2e"/>
       <use x="95.410156" xlink:href="#DejaVuSans-30"/>
      </g>
     </g>
    </g>
    <g id="ytick_2">
     <g id="line2d_9">
      <g>
       <use style="stroke:#000000;stroke-width:0.8;" x="172.8" xlink:href="#m0b2e081861" y="530.893053"/>
      </g>
     </g>
     <g id="text_10">
      <!-- 0.2 -->
      <g transform="translate(149.896875 534.692272)scale(0.1 -0.1)">
       <use xlink:href="#DejaVuSans-30"/>
       <use x="63.623047" xlink:href="#DejaVuSans-2e"/>
       <use x="95.410156" xlink:href="#DejaVuSans-32"/>
      </g>
     </g>
    </g>
    <g id="ytick_3">
     <g id="line2d_10">
      <g>
       <use style="stroke:#000000;stroke-width:0.8;" x="172.8" xlink:href="#m0b2e081861" y="458.109769"/>
      </g>
     </g>
     <g id="text_11">
      <!-- 0.4 -->
      <g transform="translate(149.896875 461.908988)scale(0.1 -0.1)">
       <use xlink:href="#DejaVuSans-30"/>
       <use x="63.623047" xlink:href="#DejaVuSans-2e"/>
       <use x="95.410156" xlink:href="#DejaVuSans-34"/>
      </g>
     </g>
    </g>
    <g id="ytick_4">
     <g id="line2d_11">
      <g>
       <use style="stroke:#000000;stroke-width:0.8;" x="172.8" xlink:href="#m0b2e081861" y="385.326486"/>
      </g>
     </g>
     <g id="text_12">
      <!-- 0.6 -->
      <defs>
       <path d="M 33.015625 40.375 
Q 26.375 40.375 22.484375 35.828125 
Q 18.609375 31.296875 18.609375 23.390625 
Q 18.609375 15.53125 22.484375 10.953125 
Q 26.375 6.390625 33.015625 6.390625 
Q 39.65625 6.390625 43.53125 10.953125 
Q 47.40625 15.53125 47.40625 23.390625 
Q 47.40625 31.296875 43.53125 35.828125 
Q 39.65625 40.375 33.015625 40.375 
M 52.59375 71.296875 
L 52.59375 62.3125 
Q 48.875 64.0625 45.09375 64.984375 
Q 41.3125 65.921875 37.59375 65.921875 
Q 27.828125 65.921875 22.671875 59.328125 
Q 17.53125 52.734375 16.796875 39.40625 
Q 19.671875 43.65625 24.015625 45.921875 
Q 28.375 48.1875 33.59375 48.1875 
Q 44.578125 48.1875 50.953125 41.515625 
Q 57.328125 34.859375 57.328125 23.390625 
Q 57.328125 12.15625 50.6875 5.359375 
Q 44.046875 -1.421875 33.015625 -1.421875 
Q 20.359375 -1.421875 13.671875 8.265625 
Q 6.984375 17.96875 6.984375 36.375 
Q 6.984375 53.65625 15.1875 63.9375 
Q 23.390625 74.21875 37.203125 74.21875 
Q 40.921875 74.21875 44.703125 73.484375 
Q 48.484375 72.75 52.59375 71.296875 
" id="DejaVuSans-36"/>
      </defs>
      <g transform="translate(149.896875 389.125705)scale(0.1 -0.1)">
       <use xlink:href="#DejaVuSans-30"/>
       <use x="63.623047" xlink:href="#DejaVuSans-2e"/>
       <use x="95.410156" xlink:href="#DejaVuSans-36"/>
      </g>
     </g>
    </g>
    <g id="ytick_5">
     <g id="line2d_12">
      <g>
       <use style="stroke:#000000;stroke-width:0.8;" x="172.8" xlink:href="#m0b2e081861" y="312.543202"/>
      </g>
     </g>
     <g id="text_13">
      <!-- 0.8 -->
      <defs>
       <path d="M 31.78125 34.625 
Q 24.75 34.625 20.71875 30.859375 
Q 16.703125 27.09375 16.703125 20.515625 
Q 16.703125 13.921875 20.71875 10.15625 
Q 24.75 6.390625 31.78125 6.390625 
Q 38.8125 6.390625 42.859375 10.171875 
Q 46.921875 13.96875 46.921875 20.515625 
Q 46.921875 27.09375 42.890625 30.859375 
Q 38.875 34.625 31.78125 34.625 
M 21.921875 38.8125 
Q 15.578125 40.375 12.03125 44.71875 
Q 8.5 49.078125 8.5 55.328125 
Q 8.5 64.0625 14.71875 69.140625 
Q 20.953125 74.21875 31.78125 74.21875 
Q 42.671875 74.21875 48.875 69.140625 
Q 55.078125 64.0625 55.078125 55.328125 
Q 55.078125 49.078125 51.53125 44.71875 
Q 48 40.375 41.703125 38.8125 
Q 48.828125 37.15625 52.796875 32.3125 
Q 56.78125 27.484375 56.78125 20.515625 
Q 56.78125 9.90625 50.3125 4.234375 
Q 43.84375 -1.421875 31.78125 -1.421875 
Q 19.734375 -1.421875 13.25 4.234375 
Q 6.78125 9.90625 6.78125 20.515625 
Q 6.78125 27.484375 10.78125 32.3125 
Q 14.796875 37.15625 21.921875 38.8125 
M 18.3125 54.390625 
Q 18.3125 48.734375 21.84375 45.5625 
Q 25.390625 42.390625 31.78125 42.390625 
Q 38.140625 42.390625 41.71875 45.5625 
Q 45.3125 48.734375 45.3125 54.390625 
Q 45.3125 60.0625 41.71875 63.234375 
Q 38.140625 66.40625 31.78125 66.40625 
Q 25.390625 66.40625 21.84375 63.234375 
Q 18.3125 60.0625 18.3125 54.390625 
" id="DejaVuSans-38"/>
      </defs>
      <g transform="translate(149.896875 316.342421)scale(0.1 -0.1)">
       <use xlink:href="#DejaVuSans-30"/>
       <use x="63.623047" xlink:href="#DejaVuSans-2e"/>
       <use x="95.410156" xlink:href="#DejaVuSans-38"/>
      </g>
     </g>
    </g>
    <g id="ytick_6">
     <g id="line2d_13">
      <g>
       <use style="stroke:#000000;stroke-width:0.8;" x="172.8" xlink:href="#m0b2e081861" y="239.759919"/>
      </g>
     </g>
     <g id="text_14">
      <!-- 1.0 -->
      <g transform="translate(149.896875 243.559137)scale(0.1 -0.1)">
       <use xlink:href="#DejaVuSans-31"/>
       <use x="63.623047" xlink:href="#DejaVuSans-2e"/>
       <use x="95.410156" xlink:href="#DejaVuSans-30"/>
      </g>
     </g>
    </g>
    <g id="ytick_7">
     <g id="line2d_14">
      <g>
       <use style="stroke:#000000;stroke-width:0.8;" x="172.8" xlink:href="#m0b2e081861" y="166.976635"/>
      </g>
     </g>
     <g id="text_15">
      <!-- 1.2 -->
      <g transform="translate(149.896875 170.775854)scale(0.1 -0.1)">
       <use xlink:href="#DejaVuSans-31"/>
       <use x="63.623047" xlink:href="#DejaVuSans-2e"/>
       <use x="95.410156" xlink:href="#DejaVuSans-32"/>
      </g>
     </g>
    </g>
    <g id="ytick_8">
     <g id="line2d_15">
      <g>
       <use style="stroke:#000000;stroke-width:0.8;" x="172.8" xlink:href="#m0b2e081861" y="94.193351"/>
      </g>
     </g>
     <g id="text_16">
      <!-- 1.4 -->
      <g transform="translate(149.896875 97.99257)scale(0.1 -0.1)">
       <use xlink:href="#DejaVuSans-31"/>
       <use x="63.623047" xlink:href="#DejaVuSans-2e"/>
       <use x="95.410156" xlink:href="#DejaVuSans-34"/>
      </g>
     </g>
    </g>
    <g id="text_17">
     <!-- T(e) + beta/10 -->
     <defs>
      <path d="M -0.296875 72.90625 
L 61.375 72.90625 
L 61.375 64.59375 
L 35.5 64.59375 
L 35.5 0 
L 25.59375 0 
L 25.59375 64.59375 
L -0.296875 64.59375 
z
" id="DejaVuSans-54"/>
      <path d="M 31 75.875 
Q 24.46875 64.65625 21.28125 53.65625 
Q 18.109375 42.671875 18.109375 31.390625 
Q 18.109375 20.125 21.3125 9.0625 
Q 24.515625 -2 31 -13.1875 
L 23.1875 -13.1875 
Q 15.875 -1.703125 12.234375 9.375 
Q 8.59375 20.453125 8.59375 31.390625 
Q 8.59375 42.28125 12.203125 53.3125 
Q 15.828125 64.359375 23.1875 75.875 
z
" id="DejaVuSans-28"/>
      <path d="M 8.015625 75.875 
L 15.828125 75.875 
Q 23.140625 64.359375 26.78125 53.3125 
Q 30.421875 42.28125 30.421875 31.390625 
Q 30.421875 20.453125 26.78125 9.375 
Q 23.140625 -1.703125 15.828125 -13.1875 
L 8.015625 -13.1875 
Q 14.5 -2 17.703125 9.0625 
Q 20.90625 20.125 20.90625 31.390625 
Q 20.90625 42.671875 17.703125 53.65625 
Q 14.5 64.65625 8.015625 75.875 
" id="DejaVuSans-29"/>
      <path id="DejaVuSans-20"/>
      <path d="M 46 62.703125 
L 46 35.5 
L 73.1875 35.5 
L 73.1875 27.203125 
L 46 27.203125 
L 46 0 
L 37.796875 0 
L 37.796875 27.203125 
L 10.59375 27.203125 
L 10.59375 35.5 
L 37.796875 35.5 
L 37.796875 62.703125 
z
" id="DejaVuSans-2b"/>
      <path d="M 48.6875 27.296875 
Q 48.6875 37.203125 44.609375 42.84375 
Q 40.53125 48.484375 33.40625 48.484375 
Q 26.265625 48.484375 22.1875 42.84375 
Q 18.109375 37.203125 18.109375 27.296875 
Q 18.109375 17.390625 22.1875 11.75 
Q 26.265625 6.109375 33.40625 6.109375 
Q 40.53125 6.109375 44.609375 11.75 
Q 48.6875 17.390625 48.6875 27.296875 
M 18.109375 46.390625 
Q 20.953125 51.265625 25.265625 53.625 
Q 29.59375 56 35.59375 56 
Q 45.5625 56 51.78125 48.09375 
Q 58.015625 40.1875 58.015625 27.296875 
Q 58.015625 14.40625 51.78125 6.484375 
Q 45.5625 -1.421875 35.59375 -1.421875 
Q 29.59375 -1.421875 25.265625 0.953125 
Q 20.953125 3.328125 18.109375 8.203125 
L 18.109375 0 
L 9.078125 0 
L 9.078125 75.984375 
L 18.109375 75.984375 
z
" id="DejaVuSans-62"/>
      <path d="M 18.3125 70.21875 
L 18.3125 54.6875 
L 36.8125 54.6875 
L 36.8125 47.703125 
L 18.3125 47.703125 
L 18.3125 18.015625 
Q 18.3125 11.328125 20.140625 9.421875 
Q 21.96875 7.515625 27.59375 7.515625 
L 36.8125 7.515625 
L 36.8125 0 
L 27.59375 0 
Q 17.1875 0 13.234375 3.875 
Q 9.28125 7.765625 9.28125 18.015625 
L 9.28125 47.703125 
L 2.6875 47.703125 
L 2.6875 54.6875 
L 9.28125 54.6875 
L 9.28125 70.21875 
z
" id="DejaVuSans-74"/>
      <path d="M 34.28125 27.484375 
Q 23.390625 27.484375 19.1875 25 
Q 14.984375 22.515625 14.984375 16.5 
Q 14.984375 11.71875 18.140625 8.90625 
Q 21.296875 6.109375 26.703125 6.109375 
Q 34.1875 6.109375 38.703125 11.40625 
Q 43.21875 16.703125 43.21875 25.484375 
L 43.21875 27.484375 
z
M 52.203125 31.203125 
L 52.203125 0 
L 43.21875 0 
L 43.21875 8.296875 
Q 40.140625 3.328125 35.546875 0.953125 
Q 30.953125 -1.421875 24.3125 -1.421875 
Q 15.921875 -1.421875 10.953125 3.296875 
Q 6 8.015625 6 15.921875 
Q 6 25.140625 12.171875 29.828125 
Q 18.359375 34.515625 30.609375 34.515625 
L 43.21875 34.515625 
L 43.21875 35.40625 
Q 43.21875 41.609375 39.140625 45 
Q 35.0625 48.390625 27.6875 48.390625 
Q 23 48.390625 18.546875 47.265625 
Q 14.109375 46.140625 10.015625 43.890625 
L 10.015625 52.203125 
Q 14.9375 54.109375 19.578125 55.046875 
Q 24.21875 56 28.609375 56 
Q 40.484375 56 46.34375 49.84375 
Q 52.203125 43.703125 52.203125 31.203125 
" id="DejaVuSans-61"/>
      <path d="M 25.390625 72.90625 
L 33.6875 72.90625 
L 8.296875 -9.28125 
L 0 -9.28125 
z
" id="DejaVuSans-2f"/>
     </defs>
     <g transform="translate(139.657812 466.493625)rotate(-90)scale(0.3 -0.3)">
      <use xlink:href="#DejaVuSans-54"/>
      <use x="61.083984" xlink:href="#DejaVuSans-28"/>
      <use x="100.097656" xlink:href="#DejaVuSans-65"/>
      <use x="161.621094" xlink:href="#DejaVuSans-29"/>
      <use x="200.634766" xlink:href="#DejaVuSans-20"/>
      <use x="232.421875" xlink:href="#DejaVuSans-2b"/>
      <use x="316.210938" xlink:href="#DejaVuSans-20"/>
      <use x="347.998047" xlink:href="#DejaVuSans-62"/>
      <use x="411.474609" xlink:href="#DejaVuSans-65"/>
      <use x="472.998047" xlink:href="#DejaVuSans-74"/>
      <use x="512.207031" xlink:href="#DejaVuSans-61"/>
      <use x="573.486328" xlink:href="#DejaVuSans-2f"/>
      <use x="607.177734" xlink:href="#DejaVuSans-31"/>
      <use x="670.800781" xlink:href="#DejaVuSans-30"/>
     </g>
    </g>
   </g>
   <g id="line2d_16">
    <path clip-path="url(#p153bec66c7)" d="M 221.498182 602.558288 
L 262.810765 602.120036 
L 290.09266 601.623777 
L 309.579727 601.057179 
L 323.610416 600.440482 
L 334.523174 599.746872 
L 343.097483 598.983936 
L 350.112828 598.133535 
L 355.569207 597.26079 
L 360.246103 596.299465 
L 364.143516 595.291215 
L 367.651188 594.167378 
L 370.769119 592.942061 
L 373.497309 591.644996 
L 375.835757 590.328254 
L 378.174205 588.778779 
L 380.512653 586.951297 
L 382.46136 585.184566 
L 384.410067 583.168794 
L 386.748515 580.398383 
L 389.086963 577.263663 
L 396.102307 567.409119 
L 397.271531 566.219219 
L 398.440755 565.341759 
L 399.609979 564.851511 
L 400.389462 564.758828 
L 401.168945 564.865375 
L 401.948427 565.158827 
L 402.72791 565.633416 
L 403.897134 566.683674 
L 405.066358 568.06291 
L 406.625324 570.277129 
L 409.743254 575.315066 
L 412.471444 579.590427 
L 414.420151 582.300769 
L 416.368857 584.656336 
L 418.317564 586.65557 
L 420.266271 588.32391 
L 422.214978 589.697971 
L 424.163684 590.816395 
L 426.502132 591.869044 
L 428.840581 592.660561 
L 431.179029 593.233156 
L 433.907218 593.66436 
L 436.635408 593.880839 
L 439.753338 593.895369 
L 442.871269 593.681316 
L 445.9892 593.243894 
L 449.107131 592.573854 
L 451.83532 591.779011 
L 454.56351 590.760657 
L 457.291699 589.481366 
L 459.630147 588.140175 
L 461.968595 586.529053 
L 464.307044 584.590316 
L 466.25575 582.683195 
L 468.204457 580.462434 
L 470.153164 577.878279 
L 472.101871 574.875301 
L 474.050577 571.401604 
L 475.999284 567.42064 
L 477.947991 562.924732 
L 480.286439 556.933577 
L 485.353077 543.501491 
L 486.912042 540.199009 
L 488.081266 538.31493 
L 488.860749 537.413963 
L 489.640231 536.823621 
L 490.419714 536.598623 
L 491.199197 536.741478 
L 491.588938 536.914007 
L 492.368421 537.600817 
L 493.147904 538.613596 
L 493.927386 539.928225 
L 495.09661 542.420051 
L 496.655576 546.461265 
L 499.383765 554.594114 
L 502.501696 563.842991 
L 504.450403 569.039973 
L 506.399109 573.638585 
L 508.347816 577.628821 
L 510.296523 581.051562 
L 512.24523 583.969986 
L 514.193936 586.452792 
L 516.142643 588.565501 
L 518.481091 590.68967 
L 520.819539 592.453712 
L 523.157988 593.926007 
L 525.886177 595.344566 
L 528.614366 596.510593 
L 531.732297 597.598844 
L 535.239969 598.582988 
L 539.137383 599.450358 
L 543.814279 600.258913 
L 549.270658 600.970332 
L 555.896261 601.602234 
L 564.080829 602.147895 
L 574.603846 602.608188 
L 588.244793 602.964003 
L 606.172895 603.199278 
L 630.7266 603.287934 
L 660.736684 603.171052 
L 689.577544 602.84306 
L 712.182543 602.375323 
L 729.720904 601.79903 
L 743.361851 601.137222 
L 754.274609 600.394688 
L 763.23866 599.570749 
L 770.643745 598.679126 
L 776.879607 597.721018 
L 782.335986 596.671105 
L 787.012882 595.562693 
L 791.300037 594.326567 
L 795.197451 592.966561 
L 798.705123 591.498848 
L 801.823054 589.949791 
L 804.551243 588.361866 
L 807.279433 586.505021 
L 809.617881 584.657881 
L 811.956329 582.522071 
L 814.294777 580.037778 
L 816.243484 577.651988 
L 818.19219 574.923333 
L 820.140897 571.789408 
L 822.089604 568.175128 
L 824.038311 563.987099 
L 825.987017 559.116334 
L 827.545983 554.642915 
L 829.104948 549.593093 
L 830.663914 543.857413 
L 832.222879 537.390709 
L 834.171586 528.102373 
L 836.120292 517.377774 
L 838.068999 505.166163 
L 840.017706 491.580332 
L 843.135637 468.111079 
L 845.474085 451.140617 
L 847.03305 441.584143 
L 848.202274 435.938091 
L 848.981757 433.089543 
L 849.76124 431.042027 
L 850.540722 429.935292 
L 850.930464 429.739212 
L 851.320205 429.773643 
L 851.709947 429.952143 
L 852.489429 431.183745 
L 853.268912 433.248011 
L 854.048395 436.082521 
L 855.217619 441.661858 
L 856.386843 448.482183 
L 857.945808 458.873878 
L 864.18167 502.201635 
L 866.130377 513.65787 
L 868.079083 523.700678 
L 870.02779 532.369523 
L 871.976497 539.801038 
L 873.535462 544.951829 
L 875.094428 549.486824 
L 877.043134 554.37591 
L 878.6021 557.748906 
L 880.550807 561.384052 
L 882.499513 564.456021 
L 884.44822 567.041247 
L 886.396927 569.198488 
L 888.345634 570.982621 
L 890.29434 572.433331 
L 892.243047 573.581291 
L 893.802012 574.298951 
L 895.750719 574.955442 
L 897.699426 575.354052 
L 899.648133 575.498806 
L 901.596839 575.388594 
L 903.155805 575.111328 
L 905.104512 574.516564 
L 907.053218 573.624646 
L 909.001925 572.405768 
L 910.950632 570.816595 
L 912.509597 569.24513 
L 914.068563 567.384194 
L 915.627528 565.177064 
L 917.186494 562.606144 
L 918.745459 559.591241 
L 920.304424 556.113405 
L 921.86339 552.079563 
L 923.422355 547.466794 
L 925.371062 540.778943 
L 927.319769 533.005324 
L 929.268475 524.183209 
L 931.606923 512.500277 
L 935.504337 492.849539 
L 937.063302 486.373569 
L 938.232526 482.584134 
L 939.012009 480.699252 
L 939.791492 479.374578 
L 940.570975 478.706579 
L 940.960716 478.621554 
L 941.740199 478.872389 
L 942.519681 479.830578 
L 943.299164 481.365661 
L 944.078647 483.433367 
L 945.247871 487.450904 
L 946.417095 492.322698 
L 947.97606 499.709708 
L 954.211922 530.469264 
L 956.160629 538.661094 
L 958.109335 545.890138 
L 960.058042 552.184037 
L 962.006749 557.636927 
L 963.955456 562.349658 
L 965.904162 566.423101 
L 967.852869 569.95023 
L 969.801576 573.013047 
L 971.750283 575.68207 
L 973.698989 578.017058 
L 976.037438 580.446552 
L 978.375886 582.540385 
L 980.714334 584.353743 
L 983.442523 586.175911 
L 986.170713 587.739664 
L 989.288643 589.269431 
L 992.796316 590.725842 
L 996.693729 592.081427 
L 1000.980884 593.323881 
L 1005.65778 594.44705 
L 1011.114159 595.523547 
L 1017.350021 596.520157 
L 1024.755106 597.464508 
L 1033.329416 598.323498 
L 1043.462691 599.109644 
L 1055.934414 599.842933 
L 1071.134327 600.503801 
L 1090.231653 601.101639 
L 1114.785359 601.636481 
L 1147.133891 602.106998 
L 1191.564405 602.516293 
L 1195.461818 602.543834 
L 1195.461818 602.543834 
" style="fill:none;stroke:#ff0000;stroke-linecap:square;stroke-width:1.5;"/>
   </g>
   <g id="line2d_17">
    <path clip-path="url(#p153bec66c7)" d="M 221.498182 561.646887 
L 253.067231 561.12131 
L 275.67223 560.533954 
L 292.820849 559.87534 
L 306.072055 559.15389 
L 316.595071 558.370466 
L 325.169381 557.522302 
L 332.184726 556.624107 
L 338.420587 555.606688 
L 343.487225 554.571223 
L 348.164121 553.3909 
L 352.061534 552.189849 
L 355.569207 550.891323 
L 358.687137 549.515046 
L 361.805068 547.876219 
L 364.533258 546.172096 
L 366.871706 544.465236 
L 369.210154 542.476755 
L 371.158861 540.566364 
L 373.107567 538.380442 
L 375.056274 535.870326 
L 377.004981 532.977632 
L 378.953688 529.631813 
L 380.902394 525.763804 
L 382.851101 521.297158 
L 384.410067 517.245818 
L 386.358773 511.538455 
L 388.30748 505.108366 
L 390.645928 496.551484 
L 395.712566 477.53253 
L 396.88179 473.943257 
L 398.051014 471.038297 
L 398.830497 469.571003 
L 399.609979 468.520277 
L 400.389462 467.962074 
L 400.779203 467.872352 
L 401.558686 468.015984 
L 402.338169 468.70901 
L 403.117651 469.856634 
L 403.897134 471.427874 
L 405.066358 474.52524 
L 406.235582 478.32215 
L 407.794548 484.124909 
L 413.640668 506.939022 
L 415.589375 513.412491 
L 417.14834 517.992172 
L 419.097047 522.977642 
L 421.045754 527.202657 
L 422.99446 530.750387 
L 424.943167 533.709906 
L 426.891874 536.169022 
L 428.840581 538.199229 
L 430.399546 539.557659 
L 432.348253 540.965297 
L 434.29696 542.09042 
L 436.245666 542.965058 
L 438.584114 543.725458 
L 440.922562 544.202147 
L 442.871269 544.40076 
L 445.209717 544.41183 
L 447.548165 544.181809 
L 449.886614 543.703646 
L 452.225062 542.96902 
L 454.173768 542.146417 
L 456.122475 541.113586 
L 458.071182 539.847708 
L 460.019889 538.319356 
L 461.968595 536.491937 
L 463.917302 534.318667 
L 465.866009 531.744394 
L 467.814716 528.707761 
L 469.373681 525.896614 
L 470.932647 522.703367 
L 472.491612 519.080719 
L 474.050577 514.998574 
L 475.999284 509.187937 
L 477.947991 502.585132 
L 479.896698 495.258383 
L 486.132559 470.921537 
L 487.301783 467.441897 
L 488.471007 464.780874 
L 489.25049 463.594959 
L 489.640231 463.153179 
L 490.419714 462.700687 
L 490.809455 462.679631 
L 491.588938 462.986862 
L 492.368421 463.88576 
L 493.147904 465.271003 
L 493.927386 467.109398 
L 495.09661 470.653129 
L 496.265834 474.933948 
L 497.8248 481.412214 
L 503.67092 506.695541 
L 505.619627 513.899522 
L 507.568334 520.219011 
L 509.127299 524.658471 
L 511.076006 529.493244 
L 513.024712 533.623605 
L 514.973419 537.146645 
L 516.922126 540.158677 
L 518.870833 542.74 
L 520.819539 544.958979 
L 522.768246 546.873777 
L 524.716953 548.533245 
L 527.055401 550.243342 
L 529.393849 551.700386 
L 532.122039 553.135976 
L 534.850228 554.345004 
L 537.968159 555.503145 
L 541.475831 556.5804 
L 545.762986 557.646168 
L 550.439882 558.569721 
L 555.896261 559.416083 
L 562.521864 560.201583 
L 570.316691 560.888955 
L 580.060225 561.506133 
L 592.142207 562.031526 
L 607.731861 562.469392 
L 627.998411 562.803182 
L 654.890564 563.012621 
L 687.239096 563.039066 
L 716.859439 562.851964 
L 739.074696 562.501722 
L 755.443833 562.027583 
L 767.525815 561.463991 
L 776.879607 560.81717 
L 784.674434 560.054984 
L 790.910296 559.224826 
L 795.976933 558.342003 
L 800.264088 557.393079 
L 804.161502 556.314201 
L 807.669174 555.112238 
L 810.787105 553.803033 
L 813.515294 552.418961 
L 815.853742 551.015391 
L 818.19219 549.358537 
L 820.530638 547.395895 
L 822.479345 545.475922 
L 824.428052 543.244232 
L 826.376759 540.641114 
L 828.325465 537.596321 
L 830.274172 534.028704 
L 832.222879 529.847604 
L 834.171586 524.960118 
L 836.120292 519.293035 
L 838.068999 512.810526 
L 840.017706 505.556917 
L 842.745895 494.517409 
L 845.474085 483.636318 
L 847.03305 478.316468 
L 848.202274 475.101563 
L 848.981757 473.430607 
L 849.76124 472.177419 
L 850.540722 471.417649 
L 851.320205 471.156066 
L 851.709947 471.162506 
L 852.489429 471.640648 
L 853.268912 472.56513 
L 854.048395 473.90391 
L 854.827877 475.616621 
L 855.997101 478.835003 
L 857.556067 483.944198 
L 860.284256 493.961947 
L 863.402187 505.193301 
L 865.350894 511.490546 
L 867.299601 517.076881 
L 869.248307 521.94484 
L 871.197014 526.139661 
L 873.145721 529.726517 
L 875.094428 532.78129 
L 877.043134 535.377253 
L 878.991841 537.576778 
L 880.940548 539.434293 
L 882.889255 540.996059 
L 884.837961 542.298935 
L 886.786668 543.374105 
L 889.125116 544.395999 
L 891.463564 545.157322 
L 893.802012 545.677605 
L 896.140461 545.969928 
L 898.478909 546.041734 
L 900.817357 545.890228 
L 903.155805 545.499357 
L 905.494253 544.853906 
L 907.44296 544.09938 
L 909.391666 543.122514 
L 911.340373 541.893243 
L 913.28908 540.373362 
L 915.237787 538.515937 
L 917.186494 536.264497 
L 919.1352 533.546158 
L 920.694166 530.983727 
L 922.253131 528.045867 
L 924.201838 523.754241 
L 925.760803 519.788269 
L 927.70951 514.145199 
L 929.658217 507.762525 
L 932.386406 497.911861 
L 935.504337 486.714371 
L 937.063302 482.003257 
L 938.232526 479.202679 
L 939.012009 477.778833 
L 939.791492 476.744963 
L 940.570975 476.169069 
L 941.350457 476.05415 
L 941.740199 476.123431 
L 942.519681 476.689527 
L 943.299164 477.66296 
L 944.078647 479.015103 
L 945.247871 481.695109 
L 946.417095 484.990437 
L 947.97606 490.033332 
L 954.601663 512.512067 
L 956.55037 518.094895 
L 958.499077 523.020593 
L 960.447783 527.316928 
L 962.39649 531.042936 
L 964.345197 534.268573 
L 966.293904 537.060597 
L 968.632352 539.922273 
L 970.581059 541.972012 
L 972.919507 544.091602 
L 975.257955 545.906211 
L 977.596403 547.468109 
L 980.324592 549.024933 
L 983.052782 550.351696 
L 986.170713 551.63955 
L 989.678385 552.855961 
L 993.575798 553.97909 
L 997.862953 555.000091 
L 1002.929591 555.984637 
L 1008.775711 556.896891 
L 1015.791055 557.760899 
L 1023.975624 558.54236 
L 1034.108899 559.276876 
L 1046.580622 559.945007 
L 1062.170276 560.545931 
L 1082.047085 561.080646 
L 1108.549497 561.558757 
L 1144.795443 561.975582 
L 1195.461818 562.32625 
L 1195.461818 562.32625 
" style="fill:none;stroke:#008000;stroke-linecap:square;stroke-width:1.5;"/>
   </g>
   <g id="line2d_18">
    <path clip-path="url(#p153bec66c7)" d="M 221.498182 521.065923 
L 251.118525 520.519692 
L 272.94404 519.904057 
L 289.702918 519.215013 
L 302.564383 518.476044 
L 313.087399 517.658871 
L 321.661709 516.781595 
L 329.066795 515.802088 
L 335.302656 514.752471 
L 340.759035 513.601501 
L 345.435931 512.38264 
L 349.333345 511.151233 
L 352.841017 509.826491 
L 355.958948 508.433399 
L 358.687137 507.008552 
L 361.415327 505.344641 
L 363.753775 503.690473 
L 366.092223 501.776331 
L 368.430671 499.553516 
L 370.379378 497.417214 
L 372.328085 494.974186 
L 374.276791 492.169603 
L 376.225498 488.93884 
L 378.174205 485.206833 
L 380.122912 480.888778 
L 382.071618 475.889064 
L 384.020325 470.115633 
L 385.969032 463.497998 
L 387.917739 456.007667 
L 389.866445 447.708659 
L 392.984376 433.388281 
L 395.322824 422.978851 
L 396.88179 417.060675 
L 398.051014 413.528743 
L 398.830497 411.728986 
L 399.609979 410.421272 
L 400.389462 409.699068 
L 400.779203 409.562692 
L 401.558686 409.67479 
L 402.338169 410.441574 
L 403.117651 411.750839 
L 403.897134 413.567721 
L 405.066358 417.180331 
L 406.235582 421.635051 
L 407.794548 428.471781 
L 414.030409 457.145473 
L 415.979116 464.669926 
L 417.927823 471.209044 
L 419.87653 476.791177 
L 421.825236 481.513796 
L 423.384202 484.74195 
L 424.943167 487.545029 
L 426.502132 489.960173 
L 428.061098 492.046198 
L 430.009805 494.233834 
L 431.958511 496.023576 
L 433.907218 497.468893 
L 435.855925 498.612907 
L 437.804632 499.489633 
L 439.753338 500.125386 
L 441.702045 500.539685 
L 443.650752 500.746073 
L 445.599459 500.752737 
L 447.937907 500.498113 
L 449.886614 500.068635 
L 451.83532 499.432128 
L 453.784027 498.575743 
L 455.732734 497.479686 
L 457.681441 496.118751 
L 459.630147 494.462029 
L 461.578854 492.469203 
L 463.137819 490.602009 
L 465.086526 487.874556 
L 467.035233 484.645894 
L 468.98394 480.829301 
L 470.542905 477.292209 
L 472.101871 473.28999 
L 474.050577 467.528627 
L 475.999284 460.871767 
L 477.947991 453.295669 
L 479.896698 444.875944 
L 483.40437 428.527364 
L 485.353077 419.871005 
L 486.912042 413.996411 
L 488.081266 410.561445 
L 488.860749 408.860702 
L 489.640231 407.67971 
L 490.419714 407.113921 
L 490.809455 407.066235 
L 491.588938 407.372032 
L 492.368421 408.357634 
L 493.147904 409.903671 
L 493.927386 411.971732 
L 495.09661 415.980902 
L 496.265834 420.844292 
L 497.8248 428.228093 
L 503.67092 457.170703 
L 505.619627 465.443879 
L 507.568334 472.709415 
L 509.127299 477.819975 
L 511.076006 483.389811 
L 513.024712 488.152039 
L 514.973419 492.219298 
L 516.922126 495.699557 
L 518.870833 498.684686 
L 520.819539 501.253495 
L 522.768246 503.472496 
L 524.716953 505.397196 
L 527.055401 507.382449 
L 529.393849 509.076103 
L 532.122039 510.747054 
L 534.850228 512.156379 
L 537.968159 513.508326 
L 541.475831 514.768107 
L 545.373245 515.914257 
L 549.660399 516.938503 
L 554.727037 517.906888 
L 560.573157 518.783232 
L 567.19876 519.550722 
L 575.383329 520.265427 
L 585.516604 520.907828 
L 597.988327 521.459378 
L 613.967722 521.927104 
L 634.624014 522.296542 
L 661.905909 522.55 
L 694.644182 522.627912 
L 724.654266 522.486634 
L 746.479782 522.176102 
L 762.069436 521.746545 
L 773.761676 521.213007 
L 782.725727 520.592747 
L 789.741072 519.902611 
L 795.587192 519.120012 
L 800.65383 518.220119 
L 804.940984 517.232298 
L 808.448657 516.214701 
L 811.566587 515.101529 
L 814.294777 513.920304 
L 817.022966 512.495898 
L 819.361414 511.029005 
L 821.699862 509.283822 
L 823.648569 507.568579 
L 825.597276 505.567704 
L 827.545983 503.226334 
L 829.49469 500.480661 
L 831.443396 497.258774 
L 833.392103 493.484472 
L 835.34081 489.086009 
L 837.289517 484.005888 
L 839.238223 478.25285 
L 841.576671 470.613658 
L 845.863826 456.358805 
L 847.422792 452.09377 
L 848.592016 449.583432 
L 849.371498 448.351874 
L 850.150981 447.480072 
L 850.930464 446.987657 
L 851.709947 446.883994 
L 852.489429 447.228196 
L 853.268912 447.941614 
L 854.048395 448.999332 
L 854.827877 450.368803 
L 855.997101 452.964432 
L 857.556067 457.114305 
L 859.894515 464.106936 
L 863.402187 474.525511 
L 865.350894 479.713093 
L 867.299601 484.323498 
L 869.248307 488.347665 
L 871.197014 491.820415 
L 873.145721 494.794312 
L 875.094428 497.329968 
L 877.043134 499.487252 
L 878.991841 501.317533 
L 880.940548 502.865237 
L 882.889255 504.167786 
L 885.227703 505.450772 
L 887.566151 506.467488 
L 889.904599 507.247099 
L 892.243047 507.816806 
L 894.581495 508.191689 
L 897.309685 508.38991 
L 899.648133 508.359788 
L 901.986581 508.136364 
L 904.325029 507.706058 
L 906.663477 507.049687 
L 908.612184 506.306522 
L 910.560891 505.360754 
L 912.509597 504.182513 
L 914.458304 502.734769 
L 916.407011 500.972339 
L 918.355718 498.841235 
L 920.304424 496.278776 
L 922.253131 493.212761 
L 924.201838 489.571312 
L 926.150545 485.296709 
L 928.099251 480.360703 
L 930.047958 474.802509 
L 932.776148 466.304701 
L 935.504337 457.930462 
L 937.063302 453.859699 
L 938.232526 451.422229 
L 939.012009 450.17173 
L 939.791492 449.250741 
L 940.570975 448.718362 
L 941.350457 448.577765 
L 941.740199 448.615205 
L 942.519681 449.054492 
L 943.299164 449.841908 
L 944.078647 450.952503 
L 945.247871 453.178692 
L 946.417095 455.933635 
L 947.97606 460.170829 
L 954.991405 480.190669 
L 956.940111 484.824177 
L 958.888818 488.905361 
L 960.837525 492.464586 
L 962.786232 495.553248 
L 964.734938 498.229272 
L 966.683645 500.549267 
L 968.632352 502.564774 
L 970.9708 504.643599 
L 973.309248 506.416479 
L 976.037438 508.165351 
L 978.765627 509.639347 
L 981.883558 511.052648 
L 985.39123 512.370419 
L 988.898902 513.463242 
L 993.186057 514.561858 
L 997.862953 515.534566 
L 1003.319332 516.446473 
L 1009.944935 517.318527 
L 1017.739762 518.110331 
L 1027.093555 518.830627 
L 1038.785795 519.496559 
L 1053.595966 520.101284 
L 1072.303551 520.632593 
L 1097.246998 521.107377 
L 1131.544237 521.523368 
L 1180.651647 521.880016 
L 1195.461818 521.956031 
L 1195.461818 521.956031 
" style="fill:none;stroke:#0000ff;stroke-linecap:square;stroke-width:1.5;"/>
   </g>
   <g id="line2d_19">
    <path clip-path="url(#p153bec66c7)" d="M 221.498182 480.575516 
L 250.339042 480.024433 
L 271.774816 479.403736 
L 288.143953 478.719247 
L 301.395159 477.946378 
L 311.918175 477.115062 
L 320.492485 476.224782 
L 327.897571 475.233707 
L 334.133432 474.174521 
L 339.589811 473.016316 
L 344.266707 471.793925 
L 348.553862 470.425674 
L 352.061534 469.079306 
L 355.179465 467.665641 
L 357.907655 466.221102 
L 360.635844 464.540412 
L 363.364034 462.564662 
L 365.702482 460.590977 
L 368.04093 458.295027 
L 369.989637 456.092114 
L 371.938343 453.574327 
L 373.88705 450.683261 
L 375.835757 447.351361 
L 377.784464 443.502521 
L 379.343429 439.992516 
L 381.292136 434.987273 
L 383.240843 429.201057 
L 385.189549 422.544166 
L 387.138256 414.950941 
L 389.086963 406.45052 
L 391.815152 393.365935 
L 395.322824 376.480142 
L 396.88179 370.1598 
L 398.051014 366.379363 
L 398.830497 364.447247 
L 399.609979 363.037495 
L 400.389462 362.249375 
L 400.779203 362.094088 
L 401.558686 362.192563 
L 402.338169 362.987204 
L 403.117651 364.359122 
L 403.897134 366.271397 
L 405.066358 370.085572 
L 406.235582 374.798122 
L 407.794548 382.040512 
L 414.030409 412.484542 
L 415.979116 420.486267 
L 417.927823 427.444538 
L 419.87653 433.388477 
L 421.825236 438.420446 
L 423.384202 441.862354 
L 424.943167 444.853115 
L 426.502132 447.431816 
L 428.061098 449.661134 
L 430.009805 452.001698 
L 431.958511 453.919643 
L 433.517477 455.189177 
L 435.466184 456.483459 
L 437.41489 457.487419 
L 439.363597 458.229513 
L 441.312304 458.732268 
L 443.261011 459.012659 
L 445.209717 459.080587 
L 447.158424 458.940518 
L 449.107131 458.591806 
L 451.055838 458.028645 
L 453.004544 457.239907 
L 454.953251 456.208752 
L 456.901958 454.911987 
L 458.850665 453.319304 
L 460.799371 451.388549 
L 462.748078 449.074619 
L 464.307044 446.908093 
L 465.866009 444.428032 
L 467.424974 441.583885 
L 468.98394 438.345166 
L 470.542905 434.643004 
L 472.101871 430.452269 
L 474.050577 424.416724 
L 475.999284 417.439822 
L 477.947991 409.495401 
L 479.896698 400.661522 
L 483.40437 383.494426 
L 485.353077 374.393431 
L 486.912042 368.208597 
L 488.081266 364.585314 
L 488.860749 362.786646 
L 489.640231 361.532566 
L 490.419714 360.923102 
L 490.809455 360.865024 
L 491.588938 361.169625 
L 492.368421 362.187492 
L 493.147904 363.793714 
L 493.927386 365.948179 
L 495.09661 370.133089 
L 496.265834 375.216685 
L 497.8248 382.942131 
L 503.67092 413.270793 
L 505.619627 421.949509 
L 507.568334 429.57398 
L 509.127299 434.938838 
L 511.076006 440.787633 
L 513.024712 445.789976 
L 514.973419 450.063788 
L 516.922126 453.72198 
L 518.870833 456.860567 
L 520.819539 459.562397 
L 522.768246 461.896983 
L 524.716953 463.922571 
L 527.055401 466.012593 
L 529.393849 467.796315 
L 532.122039 469.556873 
L 534.850228 471.042462 
L 537.968159 472.468283 
L 541.475831 473.797698 
L 545.373245 475.008 
L 549.660399 476.090411 
L 554.337296 477.044057 
L 559.793675 477.931987 
L 566.029536 478.728035 
L 573.824363 479.488175 
L 583.178156 480.162184 
L 594.480655 480.74607 
L 608.901085 481.25736 
L 627.218928 481.676352 
L 651.382892 481.998303 
L 682.5622 482.181797 
L 714.910732 482.156812 
L 740.24392 481.932277 
L 758.561764 481.556868 
L 771.81297 481.066965 
L 781.556503 480.494782 
L 789.35133 479.821177 
L 795.587192 479.066016 
L 800.65383 478.242803 
L 804.940984 477.337561 
L 808.838398 476.287356 
L 812.34607 475.090841 
L 815.07426 473.946254 
L 817.802449 472.559618 
L 820.140897 471.129707 
L 822.479345 469.420896 
L 824.428052 467.739338 
L 826.376759 465.774149 
L 828.325465 463.471062 
L 830.274172 460.767277 
L 832.222879 457.591358 
L 834.171586 453.870915 
L 836.120292 449.546878 
L 838.068999 444.5872 
L 840.017706 439.022605 
L 842.745895 430.515527 
L 845.474085 422.071814 
L 847.03305 417.904048 
L 848.202274 415.359002 
L 848.981757 414.019097 
L 849.76124 412.995624 
L 850.540722 412.347255 
L 851.320205 412.079306 
L 851.709947 412.050327 
L 852.489429 412.349297 
L 853.268912 412.990939 
L 854.048395 413.952317 
L 854.827877 415.203832 
L 855.997101 417.584893 
L 857.556067 421.403454 
L 859.894515 427.853545 
L 863.402187 437.485252 
L 865.350894 442.287678 
L 867.299601 446.559085 
L 869.248307 450.290045 
L 871.197014 453.511598 
L 873.145721 456.271987 
L 875.094428 458.626785 
L 877.043134 460.631253 
L 878.991841 462.332595 
L 880.940548 463.77197 
L 882.889255 464.983888 
L 885.227703 466.178093 
L 887.566151 467.124938 
L 890.29434 467.953108 
L 892.632788 468.454312 
L 895.360978 468.808097 
L 898.089167 468.926577 
L 900.817357 468.807832 
L 903.545546 468.433567 
L 905.883994 467.894419 
L 908.222442 467.121621 
L 910.560891 466.082249 
L 912.509597 464.978804 
L 914.458304 463.622448 
L 916.407011 461.970485 
L 918.355718 459.972124 
L 920.304424 457.568262 
L 922.253131 454.690495 
L 924.201838 451.270874 
L 926.150545 447.254374 
L 928.099251 442.613546 
L 930.047958 437.384159 
L 932.776148 429.379966 
L 935.504337 421.478284 
L 937.063302 417.627608 
L 938.232526 415.315388 
L 939.012009 414.124858 
L 939.791492 413.243348 
L 940.570975 412.726749 
L 941.350457 412.578217 
L 941.740199 412.60524 
L 942.519681 413.002033 
L 943.299164 413.726609 
L 944.078647 414.755525 
L 945.247871 416.827487 
L 946.417095 419.398789 
L 947.97606 423.361467 
L 954.991405 442.140063 
L 956.940111 446.49459 
L 958.888818 450.332078 
L 960.837525 453.680505 
L 962.786232 456.587585 
L 964.734938 459.107366 
L 966.683645 461.292746 
L 968.632352 463.192055 
L 970.9708 465.151723 
L 973.309248 466.823655 
L 976.037438 468.473668 
L 978.765627 469.864954 
L 981.883558 471.199561 
L 985.39123 472.444549 
L 989.288643 473.580817 
L 993.575798 474.600872 
L 998.642436 475.572613 
L 1004.488556 476.461913 
L 1011.5039 477.293757 
L 1020.07821 478.067777 
L 1030.211485 478.750701 
L 1043.07295 479.382559 
L 1059.442087 479.94963 
L 1080.877861 480.454805 
L 1109.718721 480.897612 
L 1150.251821 481.281635 
L 1195.461818 481.544285 
L 1195.461818 481.544285 
" style="fill:none;stroke:#00bfbf;stroke-linecap:square;stroke-width:1.5;"/>
   </g>
   <g id="line2d_20">
    <path clip-path="url(#p153bec66c7)" d="M 221.498182 440.111854 
L 250.339042 439.548921 
L 271.774816 438.914169 
L 288.143953 438.21353 
L 301.005417 437.448935 
L 311.528434 436.605962 
L 320.102744 435.703416 
L 327.118088 434.75878 
L 333.35395 433.701916 
L 338.810328 432.548874 
L 343.487225 431.333683 
L 347.77438 429.977025 
L 351.282052 428.645437 
L 354.399983 427.249442 
L 357.517913 425.604406 
L 360.246103 423.91067 
L 362.584551 422.231605 
L 364.922999 420.294417 
L 367.261447 418.048101 
L 369.210154 415.895224 
L 371.158861 413.438228 
L 373.107567 410.62282 
L 375.056274 407.384663 
L 377.004981 403.648352 
L 378.953688 399.31989 
L 380.902394 394.307194 
L 382.46136 389.734144 
L 384.410067 383.238681 
L 386.358773 375.803563 
L 388.30748 367.40922 
L 390.645928 356.204655 
L 395.712566 331.116456 
L 396.88179 326.32601 
L 398.051014 322.414894 
L 398.830497 320.412922 
L 399.609979 318.949333 
L 400.389462 318.126381 
L 400.779203 317.960966 
L 401.558686 318.052008 
L 402.338169 318.86103 
L 403.117651 320.2657 
L 403.897134 322.227995 
L 404.676617 324.697447 
L 405.845841 329.282485 
L 407.404806 336.512004 
L 410.132996 350.593345 
L 412.861185 364.389501 
L 414.809892 373.258762 
L 416.758599 381.074899 
L 418.707305 387.823169 
L 420.266271 392.497416 
L 421.825236 396.586609 
L 423.384202 400.14137 
L 424.943167 403.230714 
L 426.502132 405.895815 
L 428.061098 408.20045 
L 430.009805 410.621611 
L 431.958511 412.607371 
L 433.517477 413.922929 
L 435.466184 415.265887 
L 437.41489 416.309616 
L 439.363597 417.083663 
L 441.312304 417.611373 
L 443.261011 417.910212 
L 445.209717 417.990511 
L 447.158424 417.85699 
L 449.107131 417.509091 
L 451.055838 416.940975 
L 453.004544 416.141307 
L 454.953251 415.092938 
L 456.901958 413.772158 
L 458.850665 412.148001 
L 460.799371 410.177277 
L 462.748078 407.813932 
L 464.307044 405.599933 
L 465.866009 403.064752 
L 467.424974 400.156172 
L 468.98394 396.843615 
L 470.542905 393.055905 
L 472.101871 388.767414 
L 474.050577 382.589596 
L 475.999284 375.446334 
L 477.947991 367.310636 
L 479.896698 358.261922 
L 483.40437 340.669548 
L 485.353077 331.337606 
L 486.912042 324.991266 
L 488.081266 321.270087 
L 488.860749 319.420384 
L 489.640231 318.128083 
L 490.419714 317.495998 
L 490.809455 317.432421 
L 491.588938 317.736283 
L 492.368421 318.77081 
L 493.147904 320.408031 
L 493.927386 322.60739 
L 495.09661 326.88323 
L 496.265834 332.080936 
L 497.8248 339.984404 
L 504.060661 372.895333 
L 506.009368 381.577461 
L 507.958075 389.179649 
L 509.906782 395.738768 
L 511.855488 401.366386 
L 513.804195 406.18095 
L 515.363161 409.527384 
L 517.311867 413.167454 
L 519.260574 416.292439 
L 521.209281 418.982515 
L 523.157988 421.307746 
L 525.496436 423.699881 
L 527.834884 425.730492 
L 530.173332 427.467703 
L 532.51178 428.962415 
L 535.239969 430.45008 
L 537.968159 431.716426 
L 541.08609 432.942756 
L 544.593762 434.096936 
L 548.880917 435.25352 
L 553.557813 436.269939 
L 558.624451 437.154595 
L 564.860312 438.013823 
L 571.875656 438.760422 
L 580.449966 439.450408 
L 590.972983 440.069046 
L 604.224189 440.615032 
L 621.372808 441.082558 
L 643.588065 441.451423 
L 672.428925 441.697963 
L 705.55694 441.760388 
L 734.008058 441.605734 
L 754.274609 441.287743 
L 768.695039 440.852042 
L 779.607797 440.305465 
L 787.792365 439.684984 
L 794.417968 438.971346 
L 799.874347 438.168474 
L 804.551243 437.257283 
L 808.448657 436.277114 
L 811.956329 435.163067 
L 815.07426 433.927112 
L 817.802449 432.600119 
L 820.140897 431.231216 
L 822.479345 429.59459 
L 824.428052 427.983581 
L 826.376759 426.100092 
L 828.325465 423.892046 
L 830.274172 421.299257 
L 832.222879 418.252123 
L 834.171586 414.681443 
L 836.120292 410.530228 
L 838.068999 405.766599 
L 840.017706 400.419604 
L 842.745895 392.239094 
L 845.863826 383.044941 
L 847.422792 379.203322 
L 848.592016 376.929917 
L 849.76124 375.344477 
L 850.540722 374.711231 
L 851.320205 374.443322 
L 851.709947 374.410172 
L 852.489429 374.686835 
L 853.268912 375.292885 
L 854.048395 376.206652 
L 855.217619 378.114329 
L 856.386843 380.534162 
L 857.945808 384.315256 
L 865.350894 403.356413 
L 867.299601 407.458717 
L 869.248307 411.042939 
L 871.197014 414.139256 
L 873.145721 416.793033 
L 875.094428 419.057485 
L 877.043134 420.985442 
L 878.991841 422.622344 
L 880.940548 424.007434 
L 882.889255 425.173966 
L 885.227703 426.323725 
L 887.566151 427.235468 
L 890.29434 428.033229 
L 893.02253 428.577645 
L 895.750719 428.888104 
L 898.478909 428.96861 
L 901.207098 428.818415 
L 903.935288 428.423095 
L 906.273736 427.864456 
L 908.612184 427.078532 
L 910.560891 426.22315 
L 912.509597 425.156869 
L 914.458304 423.84589 
L 916.407011 422.248877 
L 918.355718 420.316634 
L 920.304424 417.991536 
L 922.253131 415.207395 
L 924.201838 411.89823 
L 926.150545 408.010311 
L 928.099251 403.516718 
L 930.047958 398.451016 
L 932.776148 390.693287 
L 935.504337 383.026844 
L 937.063302 379.286279 
L 938.232526 377.036808 
L 939.012009 375.876373 
L 939.791492 375.014744 
L 940.570975 374.50616 
L 941.350457 374.3539 
L 941.740199 374.3758 
L 942.519681 374.751718 
L 943.299164 375.445067 
L 944.078647 376.433539 
L 945.247871 378.428663 
L 946.417095 380.908859 
L 947.97606 384.7348 
L 954.991405 402.895652 
L 956.940111 407.111107 
L 958.888818 410.827236 
L 960.837525 414.070552 
L 962.786232 416.886978 
L 964.734938 419.328884 
L 966.683645 421.447099 
L 968.632352 423.28836 
L 970.9708 425.188611 
L 973.309248 426.810222 
L 976.037438 428.41083 
L 978.765627 429.760828 
L 981.883558 431.05611 
L 985.39123 432.264739 
L 989.288643 433.368155 
L 993.575798 434.358993 
L 998.642436 435.303189 
L 1004.488556 436.16762 
L 1011.5039 436.976533 
L 1020.07821 437.72958 
L 1030.211485 438.394369 
L 1043.07295 439.009849 
L 1059.831828 439.57354 
L 1081.657344 440.070097 
L 1111.277686 440.506581 
L 1152.980011 440.883071 
L 1195.461818 441.121182 
L 1195.461818 441.121182 
" style="fill:none;stroke:#bf00bf;stroke-linecap:square;stroke-width:1.5;"/>
   </g>
   <g id="line2d_21">
    <path clip-path="url(#p153bec66c7)" d="M 221.498182 399.659476 
L 249.9493 399.098877 
L 270.995333 398.474135 
L 287.36447 397.77528 
L 300.225935 397.014113 
L 310.748951 396.176289 
L 319.323261 395.281369 
L 326.338605 394.34644 
L 332.574467 393.302805 
L 338.030846 392.166817 
L 342.707742 390.971346 
L 346.605156 389.7726 
L 350.502569 388.336806 
L 354.010241 386.785392 
L 357.128172 385.146686 
L 359.856361 383.463277 
L 362.584551 381.492418 
L 364.922999 379.521876 
L 367.261447 377.236163 
L 369.210154 375.045609 
L 371.158861 372.545885 
L 373.107567 369.680664 
L 375.056274 366.384891 
L 377.004981 362.581598 
L 378.953688 358.175186 
L 380.902394 353.072744 
L 382.46136 348.41599 
L 384.410067 341.801749 
L 386.358773 334.229226 
L 388.30748 325.67874 
L 390.645928 314.262386 
L 396.102307 286.980743 
L 397.271531 282.352335 
L 398.440755 278.691459 
L 399.220238 276.957422 
L 399.999721 275.801632 
L 400.389462 275.428534 
L 400.779203 275.256688 
L 401.558686 275.343415 
L 402.338169 276.161383 
L 403.117651 277.586207 
L 403.897134 279.578508 
L 404.676617 282.088736 
L 405.845841 286.752808 
L 407.404806 294.105612 
L 410.132996 308.439651 
L 412.861185 322.488561 
L 414.809892 331.523103 
L 416.758599 339.485659 
L 418.707305 346.361814 
L 420.266271 351.125912 
L 421.825236 355.293428 
L 423.384202 358.917588 
L 424.943167 362.066483 
L 426.502132 364.784713 
L 428.061098 367.135746 
L 430.009805 369.606399 
L 431.56877 371.260351 
L 433.517477 372.977934 
L 435.466184 374.35111 
L 437.41489 375.419137 
L 439.363597 376.212886 
L 441.312304 376.75588 
L 443.261011 377.066293 
L 445.209717 377.154203 
L 447.158424 377.024862 
L 449.107131 376.677571 
L 451.055838 376.106496 
L 453.004544 375.300348 
L 454.953251 374.241562 
L 456.901958 372.906102 
L 458.850665 371.262923 
L 460.799371 369.267874 
L 462.748078 366.874312 
L 464.307044 364.631222 
L 465.866009 362.063129 
L 467.424974 359.114715 
L 468.98394 355.757248 
L 470.542905 351.917023 
L 472.101871 347.569749 
L 474.050577 341.304802 
L 475.999284 334.061453 
L 477.947991 325.807593 
L 479.896698 316.627593 
L 483.014628 300.770418 
L 485.353077 289.30315 
L 486.912042 282.859232 
L 488.081266 279.078284 
L 488.860749 277.1973 
L 489.640231 275.881081 
L 490.419714 275.235471 
L 490.809455 275.16845 
L 491.588938 275.471738 
L 492.368421 276.516471 
L 493.147904 278.17219 
L 493.927386 280.39972 
L 495.09661 284.730006 
L 496.265834 289.99701 
L 497.8248 298.009066 
L 504.060661 331.385569 
L 506.009368 340.193722 
L 507.958075 347.906938 
L 509.906782 354.562542 
L 511.855488 360.272668 
L 513.804195 365.159926 
L 515.363161 368.556767 
L 517.311867 372.250989 
L 519.260574 375.423555 
L 521.209281 378.154586 
L 523.157988 380.515454 
L 525.106694 382.566293 
L 527.445142 384.68743 
L 529.783591 386.495551 
L 532.51178 388.289382 
L 535.239969 389.800766 
L 537.968159 391.087469 
L 541.08609 392.333512 
L 544.593762 393.506548 
L 548.491175 394.584972 
L 552.77833 395.558899 
L 557.844968 396.489924 
L 563.691088 397.342359 
L 570.706432 398.136696 
L 578.891001 398.839828 
L 589.024276 399.48167 
L 601.495999 400.042386 
L 617.475395 400.528066 
L 638.521427 400.928825 
L 665.413581 401.210792 
L 698.151854 401.33167 
L 728.55168 401.234344 
L 750.766937 400.95521 
L 766.356591 400.54974 
L 777.65909 400.049288 
L 786.2334 399.467891 
L 793.248744 398.782106 
L 799.094864 397.989088 
L 803.77176 397.142527 
L 808.058915 396.130949 
L 811.566587 395.074323 
L 814.684518 393.903854 
L 817.412708 392.647285 
L 819.751156 391.352713 
L 822.089604 389.80935 
L 824.428052 387.952591 
L 826.376759 386.117359 
L 828.325465 383.966677 
L 830.274172 381.439194 
L 832.222879 378.468886 
L 834.171586 374.988149 
L 836.120292 370.93984 
L 838.068999 366.291716 
L 840.017706 361.074424 
L 842.745895 353.089501 
L 845.863826 344.107157 
L 847.422792 340.350928 
L 848.592016 338.124455 
L 849.76124 336.56901 
L 850.540722 335.944756 
L 851.320205 335.677024 
L 851.709947 335.641373 
L 852.489429 335.905322 
L 853.268912 336.489503 
L 854.048395 337.375448 
L 854.827877 338.53267 
L 855.997101 340.744286 
L 857.556067 344.300371 
L 859.894515 350.31789 
L 863.402187 359.322134 
L 865.350894 363.817736 
L 867.299601 367.820349 
L 869.248307 371.317236 
L 871.197014 374.338236 
L 873.145721 376.928665 
L 875.094428 379.139477 
L 877.043134 381.021273 
L 878.991841 382.619684 
L 880.940548 383.972453 
L 882.889255 385.112147 
L 885.227703 386.235138 
L 887.566151 387.126001 
L 890.29434 387.905644 
L 893.02253 388.437608 
L 895.750719 388.740933 
L 898.478909 388.819443 
L 901.207098 388.672312 
L 903.935288 388.285282 
L 906.663477 387.626682 
L 909.001925 386.818876 
L 911.340373 385.74089 
L 913.28908 384.605838 
L 915.237787 383.215765 
L 917.186494 381.527108 
L 919.1352 379.484547 
L 921.083907 377.030852 
L 922.642872 374.730271 
L 924.201838 372.095767 
L 926.150545 368.284362 
L 928.099251 363.878306 
L 930.047958 358.911574 
L 932.776148 351.29979 
L 935.504337 343.774695 
L 937.063302 340.099219 
L 938.232526 337.887867 
L 939.012009 336.745368 
L 939.791492 335.895345 
L 940.570975 335.391657 
L 941.350457 335.237131 
L 941.740199 335.256112 
L 942.519681 335.619418 
L 943.299164 336.29474 
L 944.078647 337.258219 
L 945.247871 339.207821 
L 946.417095 341.634779 
L 947.97606 345.378868 
L 954.991405 363.171102 
L 957.329853 368.070232 
L 959.278559 371.621112 
L 961.227266 374.716207 
L 963.175973 377.401389 
L 965.12468 379.727469 
L 967.463128 382.118098 
L 969.801576 384.140539 
L 972.140024 385.862591 
L 974.478472 387.335685 
L 977.206662 388.793499 
L 979.934851 390.027519 
L 983.052782 391.216787 
L 986.560454 392.330985 
L 990.847609 393.444136 
L 995.914246 394.494085 
L 1001.760367 395.445554 
L 1008.38597 396.284043 
L 1016.180797 397.041989 
L 1025.92433 397.753467 
L 1038.006312 398.397255 
L 1053.206225 398.972052 
L 1073.083034 399.487561 
L 1099.585446 399.939843 
L 1136.610874 400.334755 
L 1190.395181 400.670301 
L 1195.461818 400.693436 
L 1195.461818 400.693436 
" style="fill:none;stroke:#000000;stroke-linecap:square;stroke-width:1.5;"/>
   </g>
   <g id="line2d_22">
    <path clip-path="url(#p153bec66c7)" d="M 221.498182 359.212807 
L 249.9493 358.647394 
L 270.995333 358.017016 
L 287.36447 357.311579 
L 300.225935 356.543023 
L 310.748951 355.696875 
L 319.323261 354.792818 
L 326.338605 353.848187 
L 332.574467 352.793454 
L 338.030846 351.645294 
L 342.707742 350.436945 
L 346.605156 349.224948 
L 350.502569 347.773271 
L 354.010241 346.204417 
L 356.738431 344.77073 
L 359.46662 343.105137 
L 362.19481 341.155024 
L 364.533258 339.210594 
L 366.871706 336.95818 
L 369.210154 334.330086 
L 371.158861 331.800538 
L 373.107567 328.901599 
L 375.056274 325.566806 
L 377.004981 321.718245 
L 378.953688 317.259099 
L 380.902394 312.093979 
L 382.46136 307.38127 
L 384.410067 300.686398 
L 386.358773 293.021014 
L 388.30748 284.36471 
L 390.645928 272.807321 
L 395.712566 246.908135 
L 396.88179 241.956796 
L 398.051014 237.910248 
L 398.830497 235.836546 
L 399.609979 234.317077 
L 400.389462 233.45805 
L 400.779203 233.282198 
L 401.558686 233.365451 
L 402.338169 234.189223 
L 403.117651 235.627302 
L 403.897134 237.641091 
L 404.676617 240.178009 
L 405.845841 244.893702 
L 407.404806 252.33494 
L 410.132996 266.839534 
L 412.861185 281.058954 
L 414.809892 290.20491 
L 416.758599 298.266713 
L 418.707305 305.229522 
L 420.266271 310.053753 
L 421.825236 314.27543 
L 423.384202 317.946093 
L 424.943167 321.137503 
L 426.502132 323.891371 
L 428.061098 326.273935 
L 430.009805 328.778359 
L 431.56877 330.455032 
L 433.517477 332.197053 
L 435.466184 333.590225 
L 437.41489 334.675196 
L 439.363597 335.482388 
L 441.312304 336.035922 
L 443.261011 336.353973 
L 445.209717 336.447219 
L 447.158424 336.320657 
L 449.107131 335.973839 
L 451.055838 335.400879 
L 453.004544 334.590269 
L 454.953251 333.524491 
L 456.901958 332.179341 
L 458.850665 330.523172 
L 460.799371 328.511754 
L 462.748078 326.097915 
L 464.307044 323.835531 
L 465.866009 321.243989 
L 467.424974 318.269951 
L 468.98394 314.881723 
L 470.542905 311.006626 
L 472.101871 306.618386 
L 474.050577 300.295229 
L 475.999284 292.982075 
L 477.947991 284.650999 
L 479.896698 275.382559 
L 483.40437 257.355181 
L 485.742818 246.040944 
L 486.912042 241.275383 
L 488.081266 237.45392 
L 488.860749 235.552232 
L 489.640231 234.220856 
L 490.419714 233.565317 
L 490.809455 233.496116 
L 491.588938 233.799103 
L 492.368421 234.850512 
L 493.147904 236.519558 
L 493.927386 238.764414 
L 495.09661 243.13351 
L 496.265834 248.447909 
L 497.8248 256.532328 
L 504.060661 290.223978 
L 506.009368 299.116871 
L 507.958075 306.904962 
L 509.906782 313.625667 
L 511.855488 319.393004 
L 513.804195 324.327724 
L 515.363161 327.758158 
L 517.311867 331.49014 
L 519.260574 334.694518 
L 521.209281 337.453396 
L 523.157988 339.838363 
L 525.106694 341.910265 
L 527.445142 344.053387 
L 529.783591 345.880245 
L 532.122039 347.4513 
L 534.850228 349.017198 
L 537.968159 350.520835 
L 541.08609 351.780486 
L 544.593762 352.966344 
L 548.491175 354.056532 
L 552.77833 355.041382 
L 557.844968 355.982993 
L 563.691088 356.845299 
L 570.706432 357.649119 
L 578.891001 358.360832 
L 589.024276 359.010896 
L 601.495999 359.579177 
L 617.475395 360.072046 
L 638.131686 360.473949 
L 665.413581 360.768505 
L 698.541596 360.897175 
L 728.941421 360.805458 
L 751.156678 360.531593 
L 766.746332 360.130767 
L 778.438573 359.612068 
L 787.012882 359.022485 
L 794.028227 358.3244 
L 799.484605 357.576875 
L 804.161502 356.727427 
L 808.058915 355.815279 
L 811.566587 354.778616 
L 814.684518 353.629874 
L 817.412708 352.396269 
L 819.751156 351.125679 
L 822.089604 349.609844 
L 824.428052 347.785842 
L 826.376759 345.983573 
L 828.325465 343.869987 
L 830.274172 341.387058 
L 832.222879 338.4682 
L 834.171586 335.046597 
L 836.120292 331.066806 
L 838.068999 326.497915 
L 840.017706 321.367081 
L 842.745895 313.511529 
L 845.863826 304.670634 
L 847.422792 300.97015 
L 848.592016 298.77569 
L 849.76124 297.239751 
L 850.540722 296.621867 
L 851.320205 296.354176 
L 851.709947 296.317029 
L 852.489429 296.571818 
L 853.268912 297.142764 
L 854.048395 298.00917 
L 855.217619 299.825216 
L 856.386843 302.1339 
L 857.945808 305.746863 
L 865.350894 323.982131 
L 867.299601 327.916235 
L 869.248307 331.355064 
L 871.197014 334.326522 
L 873.145721 336.874145 
L 875.094428 339.048687 
L 877.043134 340.900625 
L 878.991841 342.473388 
L 880.940548 343.804592 
L 883.278996 345.128556 
L 885.617444 346.192851 
L 888.345634 347.153479 
L 891.073823 347.848918 
L 893.802012 348.307578 
L 896.530202 348.541933 
L 899.258391 348.556579 
L 901.986581 348.346496 
L 904.71477 347.891091 
L 907.053218 347.283712 
L 909.391666 346.443288 
L 911.340373 345.540037 
L 913.28908 344.420897 
L 915.237787 343.050354 
L 917.186494 341.385353 
L 919.1352 339.370921 
L 921.083907 336.951474 
L 922.642872 334.681192 
L 924.201838 332.083453 
L 926.150545 328.323285 
L 928.099251 323.975639 
L 930.047958 319.072718 
L 932.776148 311.559829 
L 935.504337 304.128072 
L 937.063302 300.496945 
L 938.232526 298.30997 
L 939.012009 297.179436 
L 939.791492 296.33773 
L 940.570975 295.837271 
L 941.350457 295.681412 
L 941.740199 295.698326 
L 942.519681 296.053509 
L 943.299164 296.716039 
L 944.078647 297.664376 
L 945.247871 299.583615 
L 946.417095 301.97313 
L 947.97606 305.663541 
L 954.991405 323.210403 
L 956.940111 327.287705 
L 958.888818 330.883205 
L 960.837525 334.022044 
L 962.786232 336.748542 
L 964.734938 339.112904 
L 966.683645 341.164346 
L 969.022093 343.275806 
L 971.360541 345.07011 
L 974.088731 346.831367 
L 976.81692 348.3088 
L 979.934851 349.718668 
L 983.052782 350.893158 
L 986.560454 351.993882 
L 990.847609 353.093599 
L 995.914246 354.131049 
L 1001.760367 355.071286 
L 1008.38597 355.900092 
L 1016.570538 356.681939 
L 1026.314072 357.376995 
L 1038.396054 358.006997 
L 1053.595966 358.570501 
L 1073.472775 359.076799 
L 1100.364929 359.526983 
L 1138.16984 359.920446 
L 1193.513111 360.254681 
L 1195.461818 360.26338 
L 1195.461818 360.26338 
" style="fill:none;stroke:#ff0000;stroke-linecap:square;stroke-width:1.5;"/>
   </g>
   <g id="line2d_23">
    <path clip-path="url(#p153bec66c7)" d="M 221.498182 318.769547 
L 249.9493 318.20069 
L 270.995333 317.566272 
L 286.974729 316.876191 
L 299.836193 316.109441 
L 310.35921 315.266369 
L 318.93352 314.366384 
L 326.338605 313.368065 
L 332.574467 312.30547 
L 338.030846 311.148558 
L 342.707742 309.930819 
L 346.605156 308.709395 
L 350.112828 307.405125 
L 353.230758 306.041746 
L 356.348689 304.439709 
L 359.076879 302.795944 
L 361.415327 301.170082 
L 363.753775 299.3015 
L 366.092223 297.137958 
L 368.430671 294.622883 
L 370.379378 292.205138 
L 372.328085 289.436555 
L 374.276791 286.257063 
L 376.225498 282.592993 
L 378.174205 278.355536 
L 380.122912 273.45021 
L 382.071618 267.765287 
L 384.020325 261.194931 
L 385.969032 253.65873 
L 387.917739 245.119081 
L 389.866445 235.64558 
L 392.984376 219.267128 
L 395.322824 207.324387 
L 396.88179 200.507591 
L 398.051014 196.422642 
L 398.830497 194.327827 
L 399.609979 192.79359 
L 400.389462 191.924049 
L 400.779203 191.745151 
L 401.558686 191.825975 
L 402.338169 192.654155 
L 403.117651 194.101097 
L 403.897134 196.129842 
L 404.676617 198.687023 
L 405.845841 203.441224 
L 407.404806 210.943725 
L 410.132996 225.568318 
L 412.861185 239.911508 
L 414.809892 249.137823 
L 416.758599 257.270069 
L 418.707305 264.294662 
L 420.266271 269.162636 
L 421.825236 273.422677 
L 423.384202 277.127023 
L 424.943167 280.348684 
L 426.502132 283.127628 
L 428.061098 285.53329 
L 430.009805 288.061444 
L 431.56877 289.754627 
L 433.517477 291.514302 
L 435.466184 292.922325 
L 437.41489 294.019148 
L 439.363597 294.835903 
L 441.312304 295.396913 
L 443.261011 295.720664 
L 445.209717 295.817584 
L 447.158424 295.693169 
L 449.107131 295.346695 
L 451.055838 294.772318 
L 453.004544 293.958692 
L 454.953251 292.887806 
L 456.901958 291.535704 
L 458.850665 289.870385 
L 460.799371 287.84722 
L 462.748078 285.418778 
L 464.307044 283.14217 
L 465.866009 280.534739 
L 467.424974 277.541349 
L 468.98394 274.13182 
L 470.542905 270.230966 
L 472.101871 265.814804 
L 474.050577 259.449376 
L 475.999284 252.088556 
L 477.947991 243.70166 
L 479.896698 234.369938 
L 483.40437 216.215776 
L 485.353077 206.578864 
L 486.912042 200.018999 
L 488.081266 196.17087 
L 488.860749 194.252307 
L 489.640231 192.91061 
L 490.419714 192.24818 
L 490.809455 192.177255 
L 491.588938 192.480113 
L 492.368421 193.536581 
L 493.147904 195.213946 
L 493.927386 197.473328 
L 495.09661 201.869551 
L 496.265834 207.217441 
L 497.8248 215.352816 
L 504.060661 249.270467 
L 506.009368 258.222988 
L 507.958075 266.064867 
L 509.906782 272.831837 
L 511.855488 278.639984 
L 513.804195 283.609469 
L 515.363161 287.064251 
L 517.311867 290.822073 
L 519.260574 294.049436 
L 521.209281 296.828133 
L 523.157988 299.230231 
L 525.106694 301.317494 
L 527.445142 303.476117 
L 529.783591 305.316329 
L 532.122039 306.898967 
L 534.850228 308.476719 
L 537.968159 309.99195 
L 541.08609 311.261181 
L 544.593762 312.455982 
L 548.491175 313.554795 
L 552.77833 314.547323 
L 557.844968 315.49657 
L 563.691088 316.365961 
L 570.706432 317.176461 
L 578.891001 317.894334 
L 589.024276 318.550289 
L 601.495999 319.123986 
L 617.475395 319.621966 
L 638.131686 320.028731 
L 665.023839 320.325284 
L 697.762113 320.461654 
L 728.55168 320.379471 
L 750.766937 320.116843 
L 766.356591 319.7296 
L 778.048831 319.228084 
L 787.012882 318.626101 
L 794.028227 317.938478 
L 799.484605 317.201642 
L 804.161502 316.364229 
L 808.058915 315.46471 
L 811.566587 314.442003 
L 814.684518 313.308395 
L 817.412708 312.090977 
L 819.751156 310.837409 
L 822.089604 309.341117 
L 824.428052 307.540965 
L 826.376759 305.760903 
L 828.325465 303.674494 
L 830.274172 301.222323 
L 832.222879 298.339665 
L 834.171586 294.959815 
L 836.120292 291.029437 
L 838.068999 286.51375 
L 840.017706 281.443939 
L 842.745895 273.682936 
L 845.863826 264.942088 
L 847.422792 261.279752 
L 848.592016 259.108295 
L 849.76124 257.586476 
L 850.540722 256.972868 
L 851.320205 256.705407 
L 851.709947 256.66701 
L 852.489429 256.91601 
L 853.268912 257.476172 
L 854.048395 258.330237 
L 854.827877 259.447819 
L 855.997101 261.58621 
L 857.556067 265.029759 
L 859.894515 270.866009 
L 863.402187 279.603716 
L 865.350894 283.969037 
L 867.299601 287.85613 
L 869.248307 291.254123 
L 871.197014 294.190605 
L 873.145721 296.708258 
L 875.094428 298.857698 
L 877.043134 300.687702 
L 878.991841 302.242281 
L 880.940548 303.55818 
L 883.278996 304.867225 
L 885.617444 305.919598 
L 888.345634 306.869439 
L 891.073823 307.556899 
L 893.802012 308.010529 
L 896.530202 308.242215 
L 899.258391 308.256571 
L 901.986581 308.048559 
L 904.71477 307.597765 
L 907.053218 306.996629 
L 909.391666 306.164993 
L 911.730115 305.066658 
L 913.678821 303.911476 
L 915.627528 302.498081 
L 917.576235 300.783716 
L 919.1352 299.163276 
L 921.083907 296.767715 
L 922.642872 294.520054 
L 924.201838 291.946977 
L 926.150545 288.22205 
L 928.099251 283.917058 
L 930.047958 279.060423 
L 932.776148 271.616789 
L 935.504337 264.250325 
L 937.063302 260.649889 
L 938.232526 258.480619 
L 939.012009 257.359602 
L 939.791492 256.523194 
L 940.570975 256.024968 
L 941.350457 255.868011 
L 941.740199 255.883638 
L 942.519681 256.232788 
L 943.299164 256.886335 
L 944.078647 257.824217 
L 945.247871 259.722318 
L 946.417095 262.086556 
L 947.97606 265.737825 
L 954.991405 283.110861 
L 957.329853 287.898378 
L 959.278559 291.368505 
L 961.227266 294.394805 
L 963.175973 297.020168 
L 965.12468 299.294939 
L 967.463128 301.633645 
L 969.801576 303.612144 
L 972.140024 305.296228 
L 974.478472 306.73809 
L 977.596403 308.350888 
L 980.714334 309.684383 
L 984.222006 310.923726 
L 988.119419 312.051892 
L 992.406574 313.060649 
L 997.473212 314.018688 
L 1003.319332 314.892271 
L 1010.334676 315.706657 
L 1018.908986 316.461751 
L 1029.042261 317.126051 
L 1041.903726 317.738901 
L 1058.662604 318.298412 
L 1080.48812 318.789909 
L 1110.108462 319.220964 
L 1152.200528 319.594843 
L 1195.461818 319.831961 
L 1195.461818 319.831961 
" style="fill:none;stroke:#008000;stroke-linecap:square;stroke-width:1.5;"/>
   </g>
   <g id="line2d_24">
    <path clip-path="url(#p153bec66c7)" d="M 221.498182 278.328325 
L 249.559559 277.766546 
L 270.605592 277.133635 
L 286.974729 276.42581 
L 299.836193 275.655097 
L 310.35921 274.807523 
L 318.93352 273.902649 
L 326.338605 272.898704 
L 332.574467 271.830094 
L 337.641104 270.757982 
L 342.318001 269.55387 
L 346.605156 268.213324 
L 350.112828 266.901076 
L 353.230758 265.529584 
L 356.348689 263.918105 
L 359.076879 262.264508 
L 361.415327 260.62827 
L 363.753775 258.748357 
L 366.092223 256.571267 
L 368.04093 254.49127 
L 369.989637 252.122757 
L 371.938343 249.414627 
L 373.88705 246.304068 
L 375.835757 242.717459 
L 377.784464 238.57266 
L 379.343429 234.791176 
L 381.292136 229.396442 
L 383.240843 223.157529 
L 385.189549 215.976136 
L 387.138256 207.780327 
L 389.086963 198.598704 
L 391.815152 184.452868 
L 395.322824 166.165706 
L 396.88179 159.303056 
L 398.051014 155.187596 
L 398.830497 153.077016 
L 399.609979 151.528952 
L 400.389462 150.651579 
L 400.779203 150.47034 
L 401.558686 150.549545 
L 402.338169 151.380762 
L 403.117651 152.835829 
L 403.897134 154.875867 
L 404.676617 157.447177 
L 405.845841 162.229554 
L 407.404806 169.778567 
L 410.132996 184.49854 
L 412.861185 198.93404 
L 414.809892 208.220725 
L 416.758599 216.40812 
L 418.707305 223.48061 
L 420.266271 228.381342 
L 421.825236 232.670507 
L 423.384202 236.400295 
L 424.943167 239.643791 
L 426.502132 242.443066 
L 428.061098 244.865297 
L 430.009805 247.412239 
L 431.56877 249.117891 
L 433.517477 250.890916 
L 435.466184 252.309696 
L 437.41489 253.415787 
L 439.363597 254.239878 
L 441.312304 254.806693 
L 443.261011 255.134587 
L 445.209717 255.23452 
L 447.158424 255.111597 
L 449.107131 254.76542 
L 451.055838 254.19008 
L 453.004544 253.374005 
L 454.953251 252.299445 
L 456.901958 250.942031 
L 458.850665 249.269667 
L 460.799371 247.237708 
L 462.748078 244.798311 
L 464.307044 242.511429 
L 465.866009 239.891305 
L 467.424974 236.884012 
L 468.98394 233.457476 
L 470.542905 229.538078 
L 472.101871 225.099203 
L 474.050577 218.702491 
L 475.999284 211.30326 
L 477.947991 202.87298 
L 479.896698 193.492809 
L 483.014628 177.284258 
L 485.353077 165.55642 
L 486.912042 158.961461 
L 488.081266 155.089157 
L 488.860749 153.160761 
L 489.640231 151.809638 
L 490.419714 151.14223 
L 490.809455 151.07014 
L 491.588938 151.37264 
L 492.368421 152.432631 
L 493.147904 154.117634 
L 493.927386 156.385805 
L 495.09661 160.801839 
L 496.265834 166.175561 
L 497.8248 174.352094 
L 504.060661 208.439362 
L 506.009368 217.439431 
L 507.958075 225.321647 
L 509.906782 232.124359 
L 511.855488 237.962407 
L 513.804195 242.958313 
L 515.363161 246.431424 
L 517.311867 250.209959 
L 519.260574 253.454724 
L 521.209281 256.248451 
L 523.157988 258.663773 
L 525.106694 260.762202 
L 527.445142 262.932898 
L 529.783591 264.78346 
L 532.122039 266.37508 
L 534.850228 267.961621 
L 537.968159 269.485234 
L 541.08609 270.761793 
L 544.593762 271.963739 
L 548.491175 273.068886 
L 552.77833 274.067443 
L 557.844968 275.022389 
L 563.691088 275.897138 
L 570.706432 276.712838 
L 578.891001 277.435392 
L 589.024276 278.095767 
L 601.495999 278.673586 
L 617.085653 279.165524 
L 637.352203 279.573898 
L 663.854615 279.877087 
L 696.592889 280.025269 
L 727.772197 279.954323 
L 750.377195 279.698534 
L 766.356591 279.31013 
L 778.048831 278.815045 
L 787.012882 278.220285 
L 794.028227 277.540391 
L 799.484605 276.811726 
L 804.161502 275.983194 
L 808.058915 275.093091 
L 811.566587 274.081093 
L 814.684518 272.959269 
L 817.412708 271.754253 
L 819.751156 270.512821 
L 822.089604 269.031544 
L 824.428052 267.248599 
L 826.376759 265.486527 
L 828.325465 263.419846 
L 830.274172 260.991413 
L 832.222879 258.136206 
L 834.171586 254.788333 
L 836.120292 250.893593 
L 838.068999 246.421659 
L 840.017706 241.39804 
L 842.745895 233.703661 
L 845.863826 225.038557 
L 847.422792 221.407869 
L 848.592016 219.252727 
L 849.76124 217.74164 
L 850.540722 217.131403 
L 851.320205 216.863909 
L 851.709947 216.824822 
L 852.489429 217.068787 
L 853.268912 217.622404 
L 854.048395 218.465544 
L 855.217619 220.236209 
L 856.386843 222.489883 
L 857.945808 226.019429 
L 865.350894 243.854869 
L 867.299601 247.705756 
L 869.248307 251.072262 
L 871.197014 253.981673 
L 873.145721 256.47681 
L 875.094428 258.606728 
L 877.043134 260.420819 
L 878.991841 261.961779 
L 880.940548 263.266099 
L 883.278996 264.563623 
L 885.617444 265.606709 
L 888.345634 266.548386 
L 891.073823 267.230129 
L 893.802012 267.679755 
L 896.530202 267.909429 
L 899.258391 267.923562 
L 901.986581 267.717161 
L 904.71477 267.269908 
L 907.053218 266.673455 
L 909.391666 265.848034 
L 911.340373 264.960862 
L 913.28908 263.861585 
L 915.237787 262.515125 
L 917.186494 260.879271 
L 919.1352 258.899785 
L 921.083907 256.522157 
L 922.642872 254.290757 
L 924.201838 251.737164 
L 926.150545 248.040424 
L 928.099251 243.765241 
L 930.047958 238.943168 
L 932.776148 231.55187 
L 935.504337 224.236794 
L 937.063302 220.660142 
L 938.232526 218.504099 
L 939.012009 217.388602 
L 939.791492 216.556836 
L 940.570975 216.060425 
L 941.350457 215.902846 
L 941.740199 215.917297 
L 942.519681 216.262292 
L 943.299164 216.909473 
L 944.078647 217.837949 
L 945.247871 219.719521 
L 946.417095 222.064083 
L 947.97606 225.687357 
L 954.991405 242.929686 
L 957.329853 247.681706 
L 959.278559 251.127399 
L 961.227266 254.131658 
L 963.175973 256.738348 
L 965.12468 258.997151 
L 967.463128 261.319276 
L 969.801576 263.283882 
L 972.140024 264.956669 
L 974.478472 266.388523 
L 977.206662 267.805691 
L 980.324592 269.161727 
L 983.832265 270.421093 
L 987.729678 271.564901 
L 992.016833 272.586287 
L 997.08347 273.554944 
L 1002.929591 274.436972 
L 1009.944935 275.25805 
L 1018.129503 275.988534 
L 1028.262779 276.664403 
L 1040.734502 277.270273 
L 1057.103639 277.830519 
L 1078.539413 278.326758 
L 1107.380273 278.759706 
L 1148.303115 279.136666 
L 1195.461818 279.399733 
L 1195.461818 279.399733 
" style="fill:none;stroke:#0000ff;stroke-linecap:square;stroke-width:1.5;"/>
   </g>
   <g id="line2d_25">
    <path clip-path="url(#p153bec66c7)" d="M 221.498182 237.888544 
L 249.559559 237.324765 
L 270.605592 236.689487 
L 286.974729 235.978908 
L 299.836193 235.205097 
L 310.35921 234.354024 
L 318.93352 233.445336 
L 326.338605 232.437081 
L 332.574467 231.363789 
L 337.641104 230.286925 
L 342.318001 229.077418 
L 346.605156 227.730786 
L 350.112828 226.41254 
L 353.230758 225.034686 
L 356.348689 223.415699 
L 359.076879 221.754353 
L 361.415327 220.110419 
L 363.753775 218.221615 
L 366.092223 216.034111 
L 368.04093 213.944062 
L 369.989637 211.564111 
L 371.938343 208.842924 
L 373.88705 205.716993 
L 375.835757 202.112773 
L 377.784464 197.94751 
L 379.343429 194.147325 
L 381.292136 188.725873 
L 383.240843 182.455476 
L 385.189549 175.237816 
L 387.138256 167.000032 
L 389.086963 157.771619 
L 391.815152 143.552119 
L 395.322824 125.168118 
L 396.88179 118.267761 
L 398.051014 114.129069 
L 398.830497 112.006169 
L 399.609979 110.448705 
L 400.389462 109.564931 
L 400.779203 109.381917 
L 401.558686 109.459768 
L 402.338169 110.29346 
L 403.117651 111.754332 
L 403.897134 113.802983 
L 404.676617 116.386008 
L 405.845841 121.190527 
L 407.404806 128.775935 
L 410.132996 143.568715 
L 412.861185 158.076787 
L 414.809892 167.41114 
L 416.758599 175.640708 
L 418.707305 182.749768 
L 420.266271 187.676163 
L 421.825236 191.98816 
L 423.384202 195.737967 
L 424.943167 198.998901 
L 426.502132 201.8134 
L 428.061098 204.249074 
L 430.009805 206.810315 
L 431.56877 208.525784 
L 433.517477 210.309156 
L 435.466184 211.736641 
L 437.41489 212.849784 
L 439.363597 213.67966 
L 441.312304 214.25091 
L 443.261011 214.582148 
L 445.209717 214.684335 
L 447.158424 214.562641 
L 449.107131 214.216688 
L 451.055838 213.640569 
L 453.004544 212.822656 
L 454.953251 211.745187 
L 456.901958 210.383635 
L 458.850665 208.705847 
L 460.799371 206.666938 
L 462.748078 204.218966 
L 464.307044 201.923888 
L 465.866009 199.294223 
L 467.424974 196.275825 
L 468.98394 192.836383 
L 470.542905 188.902177 
L 472.101871 184.446238 
L 474.050577 178.024624 
L 475.999284 170.596465 
L 477.947991 162.132896 
L 479.896698 152.715551 
L 483.014628 136.44127 
L 485.353077 124.664691 
L 486.912042 118.041481 
L 488.081266 114.152079 
L 488.860749 112.214954 
L 489.640231 110.857066 
L 490.419714 110.185642 
L 490.809455 110.112603 
L 491.588938 110.414947 
L 492.368421 111.477786 
L 493.147904 113.168251 
L 493.927386 115.444033 
L 495.09661 119.876077 
L 496.265834 125.269474 
L 497.8248 133.476743 
L 504.060661 167.697248 
L 506.009368 176.732961 
L 507.958075 184.647053 
L 509.906782 191.477287 
L 511.855488 197.339253 
L 513.804195 202.355503 
L 515.363161 205.84289 
L 517.311867 209.637189 
L 519.260574 212.895399 
L 521.209281 215.700925 
L 523.157988 218.126437 
L 525.106694 220.233772 
L 527.445142 222.413759 
L 529.783591 224.272296 
L 532.122039 225.870789 
L 534.850228 227.464251 
L 537.968159 228.994583 
L 541.08609 230.276827 
L 544.593762 231.484189 
L 548.491175 232.594378 
L 552.77833 233.597543 
L 557.844968 234.556953 
L 563.691088 235.435881 
L 570.706432 236.255572 
L 578.891001 236.981771 
L 589.024276 237.645611 
L 601.495999 238.226635 
L 617.085653 238.721543 
L 637.352203 239.132761 
L 663.854615 239.438793 
L 696.592889 239.590117 
L 727.772197 239.522804 
L 750.766937 239.264252 
L 766.746332 238.87438 
L 778.438573 238.375948 
L 787.402624 237.77622 
L 794.417968 237.089304 
L 800.264088 236.289255 
L 804.940984 235.429939 
L 808.838398 234.503826 
L 812.34607 233.446616 
L 815.464001 232.272056 
L 818.19219 231.008349 
L 820.530638 229.701319 
L 822.869087 228.139138 
L 824.817793 226.596215 
L 826.7665 224.790007 
L 828.715207 222.670063 
L 830.274172 220.714019 
L 832.222879 217.879938 
L 834.171586 214.556778 
L 836.120292 210.690334 
L 838.068999 206.250321 
L 840.017706 201.262336 
L 842.745895 193.621749 
L 845.863826 185.014837 
L 847.422792 181.407734 
L 848.592016 179.265647 
L 849.76124 177.762642 
L 850.540722 177.155038 
L 851.320205 176.887636 
L 851.709947 176.847901 
L 852.489429 177.088313 
L 853.268912 177.636213 
L 854.048395 178.471506 
L 855.217619 180.227051 
L 856.386843 182.462394 
L 857.945808 185.964343 
L 865.350894 203.667119 
L 867.299601 207.490098 
L 869.248307 210.8326 
L 871.197014 213.721563 
L 873.145721 216.198973 
L 875.094428 218.314069 
L 877.043134 220.115694 
L 878.991841 221.646 
L 880.940548 222.941467 
L 883.278996 224.230121 
L 885.617444 225.266229 
L 888.345634 226.201539 
L 891.073823 226.878738 
L 893.802012 227.325366 
L 896.530202 227.553477 
L 899.258391 227.567438 
L 901.986581 227.362251 
L 904.71477 226.917729 
L 907.053218 226.324866 
L 909.391666 225.504472 
L 911.730115 224.42165 
L 913.678821 223.281731 
L 915.627528 221.887995 
L 917.576235 220.19669 
L 919.524942 218.15629 
L 921.473648 215.708339 
L 923.422355 212.790566 
L 925.371062 209.344194 
L 927.319769 205.322566 
L 929.268475 200.734586 
L 931.606923 194.611846 
L 935.894078 183.180008 
L 937.453044 179.78861 
L 938.622268 177.815784 
L 939.791492 176.484093 
L 940.570975 175.989091 
L 941.350457 175.830931 
L 941.740199 175.844586 
L 942.519681 176.186133 
L 943.299164 176.828349 
L 944.078647 177.750262 
L 945.247871 179.619319 
L 946.417095 181.948943 
L 947.97606 185.549769 
L 954.991405 202.690656 
L 957.329853 207.415765 
L 959.278559 210.842079 
L 961.227266 213.829683 
L 963.175973 216.421762 
L 965.12468 218.668236 
L 967.463128 220.977668 
L 969.801576 222.931622 
L 972.140024 224.595451 
L 974.478472 226.019648 
L 977.206662 227.429287 
L 980.324592 228.778197 
L 983.832265 230.031039 
L 987.729678 231.16893 
L 992.016833 232.1851 
L 997.08347 233.14888 
L 1002.929591 234.026508 
L 1009.944935 234.843559 
L 1018.129503 235.570517 
L 1028.262779 236.243194 
L 1040.734502 236.846274 
L 1057.103639 237.404013 
L 1078.539413 237.898115 
L 1107.380273 238.329291 
L 1148.303115 238.704802 
L 1195.461818 238.966936 
L 1195.461818 238.966936 
" style="fill:none;stroke:#00bfbf;stroke-linecap:square;stroke-width:1.5;"/>
   </g>
   <g id="patch_3">
    <path d="M 172.8 627.984 
L 172.8 84.672 
" style="fill:none;stroke:#000000;stroke-linecap:square;stroke-linejoin:miter;stroke-width:0.8;"/>
   </g>
   <g id="patch_4">
    <path d="M 1244.16 627.984 
L 1244.16 84.672 
" style="fill:none;stroke:#000000;stroke-linecap:square;stroke-linejoin:miter;stroke-width:0.8;"/>
   </g>
   <g id="patch_5">
    <path d="M 172.8 627.984 
L 1244.16 627.984 
" style="fill:none;stroke:#000000;stroke-linecap:square;stroke-linejoin:miter;stroke-width:0.8;"/>
   </g>
   <g id="patch_6">
    <path d="M 172.8 84.672 
L 1244.16 84.672 
" style="fill:none;stroke:#000000;stroke-linecap:square;stroke-linejoin:miter;stroke-width:0.8;"/>
   </g>
  </g>
 </g>
 <defs>
  <clipPath id="p153bec66c7">
   <rect height="543.312" width="1071.36" x="172.8" y="84.672"/>
  </clipPath>
 </defs>
</svg>
