<?xml version="1.0" encoding="utf-8" standalone="no"?>
<!DOCTYPE svg PUBLIC "-//W3C//DTD SVG 1.1//EN"
  "http://www.w3.org/Graphics/SVG/1.1/DTD/svg11.dtd">
<!-- Created with matplotlib (http://matplotlib.org/) -->
<svg height="705pt" version="1.1" viewBox="0 0 1382 705" width="1382pt" xmlns="http://www.w3.org/2000/svg" xmlns:xlink="http://www.w3.org/1999/xlink">
 <defs>
  <style type="text/css">
*{stroke-linecap:butt;stroke-linejoin:round;}
  </style>
 </defs>
 <g id="figure_1">
  <g id="patch_1">
   <path d="M 0 705.6 
L 1382.4 705.6 
L 1382.4 0 
L 0 0 
z
" style="fill:#ffffff;"/>
  </g>
  <g id="axes_1">
   <g id="patch_2">
    <path d="M 172.8 627.984 
L 1244.16 627.984 
L 1244.16 84.672 
L 172.8 84.672 
z
" style="fill:#ffffff;"/>
   </g>
   <g id="matplotlib.axis_1">
    <g id="xtick_1">
     <g id="line2d_1">
      <defs>
       <path d="M 0 0 
L 0 3.5 
" id="me1c1a50d59" style="stroke:#000000;stroke-width:0.8;"/>
      </defs>
      <g>
       <use style="stroke:#000000;stroke-width:0.8;" x="220.524218" xlink:href="#me1c1a50d59" y="627.984"/>
      </g>
     </g>
     <g id="text_1">
      <!-- 0 -->
      <defs>
       <path d="M 31.78125 66.40625 
Q 24.171875 66.40625 20.328125 58.90625 
Q 16.5 51.421875 16.5 36.375 
Q 16.5 21.390625 20.328125 13.890625 
Q 24.171875 6.390625 31.78125 6.390625 
Q 39.453125 6.390625 43.28125 13.890625 
Q 47.125 21.390625 47.125 36.375 
Q 47.125 51.421875 43.28125 58.90625 
Q 39.453125 66.40625 31.78125 66.40625 
M 31.78125 74.21875 
Q 44.046875 74.21875 50.515625 64.515625 
Q 56.984375 54.828125 56.984375 36.375 
Q 56.984375 17.96875 50.515625 8.265625 
Q 44.046875 -1.421875 31.78125 -1.421875 
Q 19.53125 -1.421875 13.0625 8.265625 
Q 6.59375 17.96875 6.59375 36.375 
Q 6.59375 54.828125 13.0625 64.515625 
Q 19.53125 74.21875 31.78125 74.21875 
" id="DejaVuSans-30"/>
      </defs>
      <g transform="translate(217.342968 642.582437)scale(0.1 -0.1)">
       <use xlink:href="#DejaVuSans-30"/>
      </g>
     </g>
    </g>
    <g id="xtick_2">
     <g id="line2d_2">
      <g>
       <use style="stroke:#000000;stroke-width:0.8;" x="415.316945" xlink:href="#me1c1a50d59" y="627.984"/>
      </g>
     </g>
     <g id="text_2">
      <!-- 2 -->
      <defs>
       <path d="M 19.1875 8.296875 
L 53.609375 8.296875 
L 53.609375 0 
L 7.328125 0 
L 7.328125 8.296875 
Q 12.9375 14.109375 22.625 23.890625 
Q 32.328125 33.6875 34.8125 36.53125 
Q 39.546875 41.84375 41.421875 45.53125 
Q 43.3125 49.21875 43.3125 52.78125 
Q 43.3125 58.59375 39.234375 62.25 
Q 35.15625 65.921875 28.609375 65.921875 
Q 23.96875 65.921875 18.8125 64.3125 
Q 13.671875 62.703125 7.8125 59.421875 
L 7.8125 69.390625 
Q 13.765625 71.78125 18.9375 73 
Q 24.125 74.21875 28.421875 74.21875 
Q 39.75 74.21875 46.484375 68.546875 
Q 53.21875 62.890625 53.21875 53.421875 
Q 53.21875 48.921875 51.53125 44.890625 
Q 49.859375 40.875 45.40625 35.40625 
Q 44.1875 33.984375 37.640625 27.21875 
Q 31.109375 20.453125 19.1875 8.296875 
" id="DejaVuSans-32"/>
      </defs>
      <g transform="translate(412.135695 642.582437)scale(0.1 -0.1)">
       <use xlink:href="#DejaVuSans-32"/>
      </g>
     </g>
    </g>
    <g id="xtick_3">
     <g id="line2d_3">
      <g>
       <use style="stroke:#000000;stroke-width:0.8;" x="610.109673" xlink:href="#me1c1a50d59" y="627.984"/>
      </g>
     </g>
     <g id="text_3">
      <!-- 4 -->
      <defs>
       <path d="M 37.796875 64.3125 
L 12.890625 25.390625 
L 37.796875 25.390625 
z
M 35.203125 72.90625 
L 47.609375 72.90625 
L 47.609375 25.390625 
L 58.015625 25.390625 
L 58.015625 17.1875 
L 47.609375 17.1875 
L 47.609375 0 
L 37.796875 0 
L 37.796875 17.1875 
L 4.890625 17.1875 
L 4.890625 26.703125 
z
" id="DejaVuSans-34"/>
      </defs>
      <g transform="translate(606.928423 642.582437)scale(0.1 -0.1)">
       <use xlink:href="#DejaVuSans-34"/>
      </g>
     </g>
    </g>
    <g id="xtick_4">
     <g id="line2d_4">
      <g>
       <use style="stroke:#000000;stroke-width:0.8;" x="804.9024" xlink:href="#me1c1a50d59" y="627.984"/>
      </g>
     </g>
     <g id="text_4">
      <!-- 6 -->
      <defs>
       <path d="M 33.015625 40.375 
Q 26.375 40.375 22.484375 35.828125 
Q 18.609375 31.296875 18.609375 23.390625 
Q 18.609375 15.53125 22.484375 10.953125 
Q 26.375 6.390625 33.015625 6.390625 
Q 39.65625 6.390625 43.53125 10.953125 
Q 47.40625 15.53125 47.40625 23.390625 
Q 47.40625 31.296875 43.53125 35.828125 
Q 39.65625 40.375 33.015625 40.375 
M 52.59375 71.296875 
L 52.59375 62.3125 
Q 48.875 64.0625 45.09375 64.984375 
Q 41.3125 65.921875 37.59375 65.921875 
Q 27.828125 65.921875 22.671875 59.328125 
Q 17.53125 52.734375 16.796875 39.40625 
Q 19.671875 43.65625 24.015625 45.921875 
Q 28.375 48.1875 33.59375 48.1875 
Q 44.578125 48.1875 50.953125 41.515625 
Q 57.328125 34.859375 57.328125 23.390625 
Q 57.328125 12.15625 50.6875 5.359375 
Q 44.046875 -1.421875 33.015625 -1.421875 
Q 20.359375 -1.421875 13.671875 8.265625 
Q 6.984375 17.96875 6.984375 36.375 
Q 6.984375 53.65625 15.1875 63.9375 
Q 23.390625 74.21875 37.203125 74.21875 
Q 40.921875 74.21875 44.703125 73.484375 
Q 48.484375 72.75 52.59375 71.296875 
" id="DejaVuSans-36"/>
      </defs>
      <g transform="translate(801.72115 642.582437)scale(0.1 -0.1)">
       <use xlink:href="#DejaVuSans-36"/>
      </g>
     </g>
    </g>
    <g id="xtick_5">
     <g id="line2d_5">
      <g>
       <use style="stroke:#000000;stroke-width:0.8;" x="999.695127" xlink:href="#me1c1a50d59" y="627.984"/>
      </g>
     </g>
     <g id="text_5">
      <!-- 8 -->
      <defs>
       <path d="M 31.78125 34.625 
Q 24.75 34.625 20.71875 30.859375 
Q 16.703125 27.09375 16.703125 20.515625 
Q 16.703125 13.921875 20.71875 10.15625 
Q 24.75 6.390625 31.78125 6.390625 
Q 38.8125 6.390625 42.859375 10.171875 
Q 46.921875 13.96875 46.921875 20.515625 
Q 46.921875 27.09375 42.890625 30.859375 
Q 38.875 34.625 31.78125 34.625 
M 21.921875 38.8125 
Q 15.578125 40.375 12.03125 44.71875 
Q 8.5 49.078125 8.5 55.328125 
Q 8.5 64.0625 14.71875 69.140625 
Q 20.953125 74.21875 31.78125 74.21875 
Q 42.671875 74.21875 48.875 69.140625 
Q 55.078125 64.0625 55.078125 55.328125 
Q 55.078125 49.078125 51.53125 44.71875 
Q 48 40.375 41.703125 38.8125 
Q 48.828125 37.15625 52.796875 32.3125 
Q 56.78125 27.484375 56.78125 20.515625 
Q 56.78125 9.90625 50.3125 4.234375 
Q 43.84375 -1.421875 31.78125 -1.421875 
Q 19.734375 -1.421875 13.25 4.234375 
Q 6.78125 9.90625 6.78125 20.515625 
Q 6.78125 27.484375 10.78125 32.3125 
Q 14.796875 37.15625 21.921875 38.8125 
M 18.3125 54.390625 
Q 18.3125 48.734375 21.84375 45.5625 
Q 25.390625 42.390625 31.78125 42.390625 
Q 38.140625 42.390625 41.71875 45.5625 
Q 45.3125 48.734375 45.3125 54.390625 
Q 45.3125 60.0625 41.71875 63.234375 
Q 38.140625 66.40625 31.78125 66.40625 
Q 25.390625 66.40625 21.84375 63.234375 
Q 18.3125 60.0625 18.3125 54.390625 
" id="DejaVuSans-38"/>
      </defs>
      <g transform="translate(996.513877 642.582437)scale(0.1 -0.1)">
       <use xlink:href="#DejaVuSans-38"/>
      </g>
     </g>
    </g>
    <g id="xtick_6">
     <g id="line2d_6">
      <g>
       <use style="stroke:#000000;stroke-width:0.8;" x="1194.487855" xlink:href="#me1c1a50d59" y="627.984"/>
      </g>
     </g>
     <g id="text_6">
      <!-- 10 -->
      <defs>
       <path d="M 12.40625 8.296875 
L 28.515625 8.296875 
L 28.515625 63.921875 
L 10.984375 60.40625 
L 10.984375 69.390625 
L 28.421875 72.90625 
L 38.28125 72.90625 
L 38.28125 8.296875 
L 54.390625 8.296875 
L 54.390625 0 
L 12.40625 0 
z
" id="DejaVuSans-31"/>
      </defs>
      <g transform="translate(1188.125355 642.582437)scale(0.1 -0.1)">
       <use xlink:href="#DejaVuSans-31"/>
       <use x="63.623047" xlink:href="#DejaVuSans-30"/>
      </g>
     </g>
    </g>
    <g id="text_7">
     <!-- betaFraction [U] -->
     <defs>
      <path d="M 48.6875 27.296875 
Q 48.6875 37.203125 44.609375 42.84375 
Q 40.53125 48.484375 33.40625 48.484375 
Q 26.265625 48.484375 22.1875 42.84375 
Q 18.109375 37.203125 18.109375 27.296875 
Q 18.109375 17.390625 22.1875 11.75 
Q 26.265625 6.109375 33.40625 6.109375 
Q 40.53125 6.109375 44.609375 11.75 
Q 48.6875 17.390625 48.6875 27.296875 
M 18.109375 46.390625 
Q 20.953125 51.265625 25.265625 53.625 
Q 29.59375 56 35.59375 56 
Q 45.5625 56 51.78125 48.09375 
Q 58.015625 40.1875 58.015625 27.296875 
Q 58.015625 14.40625 51.78125 6.484375 
Q 45.5625 -1.421875 35.59375 -1.421875 
Q 29.59375 -1.421875 25.265625 0.953125 
Q 20.953125 3.328125 18.109375 8.203125 
L 18.109375 0 
L 9.078125 0 
L 9.078125 75.984375 
L 18.109375 75.984375 
z
" id="DejaVuSans-62"/>
      <path d="M 56.203125 29.59375 
L 56.203125 25.203125 
L 14.890625 25.203125 
Q 15.484375 15.921875 20.484375 11.0625 
Q 25.484375 6.203125 34.421875 6.203125 
Q 39.59375 6.203125 44.453125 7.46875 
Q 49.3125 8.734375 54.109375 11.28125 
L 54.109375 2.78125 
Q 49.265625 0.734375 44.1875 -0.34375 
Q 39.109375 -1.421875 33.890625 -1.421875 
Q 20.796875 -1.421875 13.15625 6.1875 
Q 5.515625 13.8125 5.515625 26.8125 
Q 5.515625 40.234375 12.765625 48.109375 
Q 20.015625 56 32.328125 56 
Q 43.359375 56 49.78125 48.890625 
Q 56.203125 41.796875 56.203125 29.59375 
M 47.21875 32.234375 
Q 47.125 39.59375 43.09375 43.984375 
Q 39.0625 48.390625 32.421875 48.390625 
Q 24.90625 48.390625 20.390625 44.140625 
Q 15.875 39.890625 15.1875 32.171875 
z
" id="DejaVuSans-65"/>
      <path d="M 18.3125 70.21875 
L 18.3125 54.6875 
L 36.8125 54.6875 
L 36.8125 47.703125 
L 18.3125 47.703125 
L 18.3125 18.015625 
Q 18.3125 11.328125 20.140625 9.421875 
Q 21.96875 7.515625 27.59375 7.515625 
L 36.8125 7.515625 
L 36.8125 0 
L 27.59375 0 
Q 17.1875 0 13.234375 3.875 
Q 9.28125 7.765625 9.28125 18.015625 
L 9.28125 47.703125 
L 2.6875 47.703125 
L 2.6875 54.6875 
L 9.28125 54.6875 
L 9.28125 70.21875 
z
" id="DejaVuSans-74"/>
      <path d="M 34.28125 27.484375 
Q 23.390625 27.484375 19.1875 25 
Q 14.984375 22.515625 14.984375 16.5 
Q 14.984375 11.71875 18.140625 8.90625 
Q 21.296875 6.109375 26.703125 6.109375 
Q 34.1875 6.109375 38.703125 11.40625 
Q 43.21875 16.703125 43.21875 25.484375 
L 43.21875 27.484375 
z
M 52.203125 31.203125 
L 52.203125 0 
L 43.21875 0 
L 43.21875 8.296875 
Q 40.140625 3.328125 35.546875 0.953125 
Q 30.953125 -1.421875 24.3125 -1.421875 
Q 15.921875 -1.421875 10.953125 3.296875 
Q 6 8.015625 6 15.921875 
Q 6 25.140625 12.171875 29.828125 
Q 18.359375 34.515625 30.609375 34.515625 
L 43.21875 34.515625 
L 43.21875 35.40625 
Q 43.21875 41.609375 39.140625 45 
Q 35.0625 48.390625 27.6875 48.390625 
Q 23 48.390625 18.546875 47.265625 
Q 14.109375 46.140625 10.015625 43.890625 
L 10.015625 52.203125 
Q 14.9375 54.109375 19.578125 55.046875 
Q 24.21875 56 28.609375 56 
Q 40.484375 56 46.34375 49.84375 
Q 52.203125 43.703125 52.203125 31.203125 
" id="DejaVuSans-61"/>
      <path d="M 9.8125 72.90625 
L 51.703125 72.90625 
L 51.703125 64.59375 
L 19.671875 64.59375 
L 19.671875 43.109375 
L 48.578125 43.109375 
L 48.578125 34.8125 
L 19.671875 34.8125 
L 19.671875 0 
L 9.8125 0 
z
" id="DejaVuSans-46"/>
      <path d="M 41.109375 46.296875 
Q 39.59375 47.171875 37.8125 47.578125 
Q 36.03125 48 33.890625 48 
Q 26.265625 48 22.1875 43.046875 
Q 18.109375 38.09375 18.109375 28.8125 
L 18.109375 0 
L 9.078125 0 
L 9.078125 54.6875 
L 18.109375 54.6875 
L 18.109375 46.1875 
Q 20.953125 51.171875 25.484375 53.578125 
Q 30.03125 56 36.53125 56 
Q 37.453125 56 38.578125 55.875 
Q 39.703125 55.765625 41.0625 55.515625 
z
" id="DejaVuSans-72"/>
      <path d="M 48.78125 52.59375 
L 48.78125 44.1875 
Q 44.96875 46.296875 41.140625 47.34375 
Q 37.3125 48.390625 33.40625 48.390625 
Q 24.65625 48.390625 19.8125 42.84375 
Q 14.984375 37.3125 14.984375 27.296875 
Q 14.984375 17.28125 19.8125 11.734375 
Q 24.65625 6.203125 33.40625 6.203125 
Q 37.3125 6.203125 41.140625 7.25 
Q 44.96875 8.296875 48.78125 10.40625 
L 48.78125 2.09375 
Q 45.015625 0.34375 40.984375 -0.53125 
Q 36.96875 -1.421875 32.421875 -1.421875 
Q 20.0625 -1.421875 12.78125 6.34375 
Q 5.515625 14.109375 5.515625 27.296875 
Q 5.515625 40.671875 12.859375 48.328125 
Q 20.21875 56 33.015625 56 
Q 37.15625 56 41.109375 55.140625 
Q 45.0625 54.296875 48.78125 52.59375 
" id="DejaVuSans-63"/>
      <path d="M 9.421875 54.6875 
L 18.40625 54.6875 
L 18.40625 0 
L 9.421875 0 
z
M 9.421875 75.984375 
L 18.40625 75.984375 
L 18.40625 64.59375 
L 9.421875 64.59375 
z
" id="DejaVuSans-69"/>
      <path d="M 30.609375 48.390625 
Q 23.390625 48.390625 19.1875 42.75 
Q 14.984375 37.109375 14.984375 27.296875 
Q 14.984375 17.484375 19.15625 11.84375 
Q 23.34375 6.203125 30.609375 6.203125 
Q 37.796875 6.203125 41.984375 11.859375 
Q 46.1875 17.53125 46.1875 27.296875 
Q 46.1875 37.015625 41.984375 42.703125 
Q 37.796875 48.390625 30.609375 48.390625 
M 30.609375 56 
Q 42.328125 56 49.015625 48.375 
Q 55.71875 40.765625 55.71875 27.296875 
Q 55.71875 13.875 49.015625 6.21875 
Q 42.328125 -1.421875 30.609375 -1.421875 
Q 18.84375 -1.421875 12.171875 6.21875 
Q 5.515625 13.875 5.515625 27.296875 
Q 5.515625 40.765625 12.171875 48.375 
Q 18.84375 56 30.609375 56 
" id="DejaVuSans-6f"/>
      <path d="M 54.890625 33.015625 
L 54.890625 0 
L 45.90625 0 
L 45.90625 32.71875 
Q 45.90625 40.484375 42.875 44.328125 
Q 39.84375 48.1875 33.796875 48.1875 
Q 26.515625 48.1875 22.3125 43.546875 
Q 18.109375 38.921875 18.109375 30.90625 
L 18.109375 0 
L 9.078125 0 
L 9.078125 54.6875 
L 18.109375 54.6875 
L 18.109375 46.1875 
Q 21.34375 51.125 25.703125 53.5625 
Q 30.078125 56 35.796875 56 
Q 45.21875 56 50.046875 50.171875 
Q 54.890625 44.34375 54.890625 33.015625 
" id="DejaVuSans-6e"/>
      <path id="DejaVuSans-20"/>
      <path d="M 8.59375 75.984375 
L 29.296875 75.984375 
L 29.296875 69 
L 17.578125 69 
L 17.578125 -6.203125 
L 29.296875 -6.203125 
L 29.296875 -13.1875 
L 8.59375 -13.1875 
z
" id="DejaVuSans-5b"/>
      <path d="M 8.6875 72.90625 
L 18.609375 72.90625 
L 18.609375 28.609375 
Q 18.609375 16.890625 22.84375 11.734375 
Q 27.09375 6.59375 36.625 6.59375 
Q 46.09375 6.59375 50.34375 11.734375 
Q 54.59375 16.890625 54.59375 28.609375 
L 54.59375 72.90625 
L 64.5 72.90625 
L 64.5 27.390625 
Q 64.5 13.140625 57.4375 5.859375 
Q 50.390625 -1.421875 36.625 -1.421875 
Q 22.796875 -1.421875 15.734375 5.859375 
Q 8.6875 13.140625 8.6875 27.390625 
z
" id="DejaVuSans-55"/>
      <path d="M 30.421875 75.984375 
L 30.421875 -13.1875 
L 9.71875 -13.1875 
L 9.71875 -6.203125 
L 21.390625 -6.203125 
L 21.390625 69 
L 9.71875 69 
L 9.71875 75.984375 
z
" id="DejaVuSans-5d"/>
     </defs>
     <g transform="translate(667.738594 656.260562)scale(0.1 -0.1)">
      <use xlink:href="#DejaVuSans-62"/>
      <use x="63.476562" xlink:href="#DejaVuSans-65"/>
      <use x="125" xlink:href="#DejaVuSans-74"/>
      <use x="164.208984" xlink:href="#DejaVuSans-61"/>
      <use x="225.488281" xlink:href="#DejaVuSans-46"/>
      <use x="282.898438" xlink:href="#DejaVuSans-72"/>
      <use x="324.011719" xlink:href="#DejaVuSans-61"/>
      <use x="385.291016" xlink:href="#DejaVuSans-63"/>
      <use x="440.271484" xlink:href="#DejaVuSans-74"/>
      <use x="479.480469" xlink:href="#DejaVuSans-69"/>
      <use x="507.263672" xlink:href="#DejaVuSans-6f"/>
      <use x="568.445312" xlink:href="#DejaVuSans-6e"/>
      <use x="631.824219" xlink:href="#DejaVuSans-20"/>
      <use x="663.611328" xlink:href="#DejaVuSans-5b"/>
      <use x="702.625" xlink:href="#DejaVuSans-55"/>
      <use x="775.818359" xlink:href="#DejaVuSans-5d"/>
     </g>
    </g>
   </g>
   <g id="matplotlib.axis_2">
    <g id="ytick_1">
     <g id="line2d_7">
      <defs>
       <path d="M 0 0 
L -3.5 0 
" id="m14148c6b46" style="stroke:#000000;stroke-width:0.8;"/>
      </defs>
      <g>
       <use style="stroke:#000000;stroke-width:0.8;" x="172.8" xlink:href="#m14148c6b46" y="628.070128"/>
      </g>
     </g>
     <g id="text_8">
      <!-- 5.4 -->
      <defs>
       <path d="M 10.796875 72.90625 
L 49.515625 72.90625 
L 49.515625 64.59375 
L 19.828125 64.59375 
L 19.828125 46.734375 
Q 21.96875 47.46875 24.109375 47.828125 
Q 26.265625 48.1875 28.421875 48.1875 
Q 40.625 48.1875 47.75 41.5 
Q 54.890625 34.8125 54.890625 23.390625 
Q 54.890625 11.625 47.5625 5.09375 
Q 40.234375 -1.421875 26.90625 -1.421875 
Q 22.3125 -1.421875 17.546875 -0.640625 
Q 12.796875 0.140625 7.71875 1.703125 
L 7.71875 11.625 
Q 12.109375 9.234375 16.796875 8.0625 
Q 21.484375 6.890625 26.703125 6.890625 
Q 35.15625 6.890625 40.078125 11.328125 
Q 45.015625 15.765625 45.015625 23.390625 
Q 45.015625 31 40.078125 35.4375 
Q 35.15625 39.890625 26.703125 39.890625 
Q 22.75 39.890625 18.8125 39.015625 
Q 14.890625 38.140625 10.796875 36.28125 
z
" id="DejaVuSans-35"/>
       <path d="M 10.6875 12.40625 
L 21 12.40625 
L 21 0 
L 10.6875 0 
z
" id="DejaVuSans-2e"/>
      </defs>
      <g transform="translate(149.896875 631.869347)scale(0.1 -0.1)">
       <use xlink:href="#DejaVuSans-35"/>
       <use x="63.623047" xlink:href="#DejaVuSans-2e"/>
       <use x="95.410156" xlink:href="#DejaVuSans-34"/>
      </g>
     </g>
    </g>
    <g id="ytick_2">
     <g id="line2d_8">
      <g>
       <use style="stroke:#000000;stroke-width:0.8;" x="172.8" xlink:href="#m14148c6b46" y="527.006465"/>
      </g>
     </g>
     <g id="text_9">
      <!-- 5.5 -->
      <g transform="translate(149.896875 530.805684)scale(0.1 -0.1)">
       <use xlink:href="#DejaVuSans-35"/>
       <use x="63.623047" xlink:href="#DejaVuSans-2e"/>
       <use x="95.410156" xlink:href="#DejaVuSans-35"/>
      </g>
     </g>
    </g>
    <g id="ytick_3">
     <g id="line2d_9">
      <g>
       <use style="stroke:#000000;stroke-width:0.8;" x="172.8" xlink:href="#m14148c6b46" y="425.942803"/>
      </g>
     </g>
     <g id="text_10">
      <!-- 5.6 -->
      <g transform="translate(149.896875 429.742022)scale(0.1 -0.1)">
       <use xlink:href="#DejaVuSans-35"/>
       <use x="63.623047" xlink:href="#DejaVuSans-2e"/>
       <use x="95.410156" xlink:href="#DejaVuSans-36"/>
      </g>
     </g>
    </g>
    <g id="ytick_4">
     <g id="line2d_10">
      <g>
       <use style="stroke:#000000;stroke-width:0.8;" x="172.8" xlink:href="#m14148c6b46" y="324.87914"/>
      </g>
     </g>
     <g id="text_11">
      <!-- 5.7 -->
      <defs>
       <path d="M 8.203125 72.90625 
L 55.078125 72.90625 
L 55.078125 68.703125 
L 28.609375 0 
L 18.3125 0 
L 43.21875 64.59375 
L 8.203125 64.59375 
z
" id="DejaVuSans-37"/>
      </defs>
      <g transform="translate(149.896875 328.678359)scale(0.1 -0.1)">
       <use xlink:href="#DejaVuSans-35"/>
       <use x="63.623047" xlink:href="#DejaVuSans-2e"/>
       <use x="95.410156" xlink:href="#DejaVuSans-37"/>
      </g>
     </g>
    </g>
    <g id="ytick_5">
     <g id="line2d_11">
      <g>
       <use style="stroke:#000000;stroke-width:0.8;" x="172.8" xlink:href="#m14148c6b46" y="223.815478"/>
      </g>
     </g>
     <g id="text_12">
      <!-- 5.8 -->
      <g transform="translate(149.896875 227.614697)scale(0.1 -0.1)">
       <use xlink:href="#DejaVuSans-35"/>
       <use x="63.623047" xlink:href="#DejaVuSans-2e"/>
       <use x="95.410156" xlink:href="#DejaVuSans-38"/>
      </g>
     </g>
    </g>
    <g id="ytick_6">
     <g id="line2d_12">
      <g>
       <use style="stroke:#000000;stroke-width:0.8;" x="172.8" xlink:href="#m14148c6b46" y="122.751815"/>
      </g>
     </g>
     <g id="text_13">
      <!-- 5.9 -->
      <defs>
       <path d="M 10.984375 1.515625 
L 10.984375 10.5 
Q 14.703125 8.734375 18.5 7.8125 
Q 22.3125 6.890625 25.984375 6.890625 
Q 35.75 6.890625 40.890625 13.453125 
Q 46.046875 20.015625 46.78125 33.40625 
Q 43.953125 29.203125 39.59375 26.953125 
Q 35.25 24.703125 29.984375 24.703125 
Q 19.046875 24.703125 12.671875 31.3125 
Q 6.296875 37.9375 6.296875 49.421875 
Q 6.296875 60.640625 12.9375 67.421875 
Q 19.578125 74.21875 30.609375 74.21875 
Q 43.265625 74.21875 49.921875 64.515625 
Q 56.59375 54.828125 56.59375 36.375 
Q 56.59375 19.140625 48.40625 8.859375 
Q 40.234375 -1.421875 26.421875 -1.421875 
Q 22.703125 -1.421875 18.890625 -0.6875 
Q 15.09375 0.046875 10.984375 1.515625 
M 30.609375 32.421875 
Q 37.25 32.421875 41.125 36.953125 
Q 45.015625 41.5 45.015625 49.421875 
Q 45.015625 57.28125 41.125 61.84375 
Q 37.25 66.40625 30.609375 66.40625 
Q 23.96875 66.40625 20.09375 61.84375 
Q 16.21875 57.28125 16.21875 49.421875 
Q 16.21875 41.5 20.09375 36.953125 
Q 23.96875 32.421875 30.609375 32.421875 
" id="DejaVuSans-39"/>
      </defs>
      <g transform="translate(149.896875 126.551034)scale(0.1 -0.1)">
       <use xlink:href="#DejaVuSans-35"/>
       <use x="63.623047" xlink:href="#DejaVuSans-2e"/>
       <use x="95.410156" xlink:href="#DejaVuSans-39"/>
      </g>
     </g>
    </g>
    <g id="text_14">
     <!-- conductance -->
     <defs>
      <path d="M 45.40625 46.390625 
L 45.40625 75.984375 
L 54.390625 75.984375 
L 54.390625 0 
L 45.40625 0 
L 45.40625 8.203125 
Q 42.578125 3.328125 38.25 0.953125 
Q 33.9375 -1.421875 27.875 -1.421875 
Q 17.96875 -1.421875 11.734375 6.484375 
Q 5.515625 14.40625 5.515625 27.296875 
Q 5.515625 40.1875 11.734375 48.09375 
Q 17.96875 56 27.875 56 
Q 33.9375 56 38.25 53.625 
Q 42.578125 51.265625 45.40625 46.390625 
M 14.796875 27.296875 
Q 14.796875 17.390625 18.875 11.75 
Q 22.953125 6.109375 30.078125 6.109375 
Q 37.203125 6.109375 41.296875 11.75 
Q 45.40625 17.390625 45.40625 27.296875 
Q 45.40625 37.203125 41.296875 42.84375 
Q 37.203125 48.484375 30.078125 48.484375 
Q 22.953125 48.484375 18.875 42.84375 
Q 14.796875 37.203125 14.796875 27.296875 
" id="DejaVuSans-64"/>
      <path d="M 8.5 21.578125 
L 8.5 54.6875 
L 17.484375 54.6875 
L 17.484375 21.921875 
Q 17.484375 14.15625 20.5 10.265625 
Q 23.53125 6.390625 29.59375 6.390625 
Q 36.859375 6.390625 41.078125 11.03125 
Q 45.3125 15.671875 45.3125 23.6875 
L 45.3125 54.6875 
L 54.296875 54.6875 
L 54.296875 0 
L 45.3125 0 
L 45.3125 8.40625 
Q 42.046875 3.421875 37.71875 1 
Q 33.40625 -1.421875 27.6875 -1.421875 
Q 18.265625 -1.421875 13.375 4.4375 
Q 8.5 10.296875 8.5 21.578125 
M 31.109375 56 
z
" id="DejaVuSans-75"/>
     </defs>
     <g transform="translate(143.817187 388.416281)rotate(-90)scale(0.1 -0.1)">
      <use xlink:href="#DejaVuSans-63"/>
      <use x="54.980469" xlink:href="#DejaVuSans-6f"/>
      <use x="116.162109" xlink:href="#DejaVuSans-6e"/>
      <use x="179.541016" xlink:href="#DejaVuSans-64"/>
      <use x="243.017578" xlink:href="#DejaVuSans-75"/>
      <use x="306.396484" xlink:href="#DejaVuSans-63"/>
      <use x="361.376953" xlink:href="#DejaVuSans-74"/>
      <use x="400.585938" xlink:href="#DejaVuSans-61"/>
      <use x="461.865234" xlink:href="#DejaVuSans-6e"/>
      <use x="525.244141" xlink:href="#DejaVuSans-63"/>
      <use x="580.224609" xlink:href="#DejaVuSans-65"/>
     </g>
    </g>
   </g>
   <g id="line2d_13">
    <defs>
     <path d="M 0 3 
C 0.795609 3 1.55874 2.683901 2.12132 2.12132 
C 2.683901 1.55874 3 0.795609 3 0 
C 3 -0.795609 2.683901 -1.55874 2.12132 -2.12132 
C 1.55874 -2.683901 0.795609 -3 0 -3 
C -0.795609 -3 -1.55874 -2.683901 -2.12132 -2.12132 
C -2.683901 -1.55874 -3 -0.795609 -3 0 
C -3 0.795609 -2.683901 1.55874 -2.12132 2.12132 
C -1.55874 2.683901 -0.795609 3 0 3 
z
" id="m49da16a6b1" style="stroke:#ff0000;"/>
    </defs>
    <g clip-path="url(#p2e806f7e13)">
     <use style="fill:#ff0000;stroke:#ff0000;" x="221.498182" xlink:href="#m49da16a6b1" y="109.368"/>
     <use style="fill:#ff0000;stroke:#ff0000;" x="231.336198" xlink:href="#m49da16a6b1" y="345.914068"/>
     <use style="fill:#ff0000;stroke:#ff0000;" x="241.174215" xlink:href="#m49da16a6b1" y="404.57599"/>
     <use style="fill:#ff0000;stroke:#ff0000;" x="251.012231" xlink:href="#m49da16a6b1" y="457.424446"/>
     <use style="fill:#ff0000;stroke:#ff0000;" x="260.850248" xlink:href="#m49da16a6b1" y="510.055423"/>
     <use style="fill:#ff0000;stroke:#ff0000;" x="270.688264" xlink:href="#m49da16a6b1" y="550.767116"/>
     <use style="fill:#ff0000;stroke:#ff0000;" x="280.526281" xlink:href="#m49da16a6b1" y="577.611724"/>
     <use style="fill:#ff0000;stroke:#ff0000;" x="290.364298" xlink:href="#m49da16a6b1" y="593.235574"/>
     <use style="fill:#ff0000;stroke:#ff0000;" x="300.202314" xlink:href="#m49da16a6b1" y="600.910938"/>
     <use style="fill:#ff0000;stroke:#ff0000;" x="310.040331" xlink:href="#m49da16a6b1" y="603.288"/>
     <use style="fill:#ff0000;stroke:#ff0000;" x="319.878347" xlink:href="#m49da16a6b1" y="602.253391"/>
     <use style="fill:#ff0000;stroke:#ff0000;" x="329.716364" xlink:href="#m49da16a6b1" y="599.083067"/>
     <use style="fill:#ff0000;stroke:#ff0000;" x="339.55438" xlink:href="#m49da16a6b1" y="594.621418"/>
     <use style="fill:#ff0000;stroke:#ff0000;" x="349.392397" xlink:href="#m49da16a6b1" y="589.421912"/>
     <use style="fill:#ff0000;stroke:#ff0000;" x="359.230413" xlink:href="#m49da16a6b1" y="583.845411"/>
     <use style="fill:#ff0000;stroke:#ff0000;" x="369.06843" xlink:href="#m49da16a6b1" y="578.125912"/>
     <use style="fill:#ff0000;stroke:#ff0000;" x="378.906446" xlink:href="#m49da16a6b1" y="572.413795"/>
     <use style="fill:#ff0000;stroke:#ff0000;" x="388.744463" xlink:href="#m49da16a6b1" y="566.804188"/>
     <use style="fill:#ff0000;stroke:#ff0000;" x="398.582479" xlink:href="#m49da16a6b1" y="561.355587"/>
     <use style="fill:#ff0000;stroke:#ff0000;" x="408.420496" xlink:href="#m49da16a6b1" y="556.102178"/>
     <use style="fill:#ff0000;stroke:#ff0000;" x="418.258512" xlink:href="#m49da16a6b1" y="551.062007"/>
     <use style="fill:#ff0000;stroke:#ff0000;" x="428.096529" xlink:href="#m49da16a6b1" y="546.242455"/>
     <use style="fill:#ff0000;stroke:#ff0000;" x="437.934545" xlink:href="#m49da16a6b1" y="541.643918"/>
     <use style="fill:#ff0000;stroke:#ff0000;" x="447.772562" xlink:href="#m49da16a6b1" y="537.262291"/>
     <use style="fill:#ff0000;stroke:#ff0000;" x="457.610578" xlink:href="#m49da16a6b1" y="533.090654"/>
     <use style="fill:#ff0000;stroke:#ff0000;" x="467.448595" xlink:href="#m49da16a6b1" y="529.120407"/>
     <use style="fill:#ff0000;stroke:#ff0000;" x="477.286612" xlink:href="#m49da16a6b1" y="525.342051"/>
     <use style="fill:#ff0000;stroke:#ff0000;" x="487.124628" xlink:href="#m49da16a6b1" y="521.745698"/>
     <use style="fill:#ff0000;stroke:#ff0000;" x="496.962645" xlink:href="#m49da16a6b1" y="518.321417"/>
     <use style="fill:#ff0000;stroke:#ff0000;" x="506.800661" xlink:href="#m49da16a6b1" y="515.059467"/>
     <use style="fill:#ff0000;stroke:#ff0000;" x="516.638678" xlink:href="#m49da16a6b1" y="511.950433"/>
     <use style="fill:#ff0000;stroke:#ff0000;" x="526.476694" xlink:href="#m49da16a6b1" y="508.985313"/>
     <use style="fill:#ff0000;stroke:#ff0000;" x="536.314711" xlink:href="#m49da16a6b1" y="506.155568"/>
     <use style="fill:#ff0000;stroke:#ff0000;" x="546.152727" xlink:href="#m49da16a6b1" y="503.453144"/>
     <use style="fill:#ff0000;stroke:#ff0000;" x="555.990744" xlink:href="#m49da16a6b1" y="500.870469"/>
     <use style="fill:#ff0000;stroke:#ff0000;" x="565.82876" xlink:href="#m49da16a6b1" y="498.40045"/>
     <use style="fill:#ff0000;stroke:#ff0000;" x="575.666777" xlink:href="#m49da16a6b1" y="496.03645"/>
     <use style="fill:#ff0000;stroke:#ff0000;" x="585.504793" xlink:href="#m49da16a6b1" y="493.772274"/>
     <use style="fill:#ff0000;stroke:#ff0000;" x="595.34281" xlink:href="#m49da16a6b1" y="491.602141"/>
     <use style="fill:#ff0000;stroke:#ff0000;" x="605.180826" xlink:href="#m49da16a6b1" y="489.520661"/>
     <use style="fill:#ff0000;stroke:#ff0000;" x="615.018843" xlink:href="#m49da16a6b1" y="487.522806"/>
     <use style="fill:#ff0000;stroke:#ff0000;" x="624.856859" xlink:href="#m49da16a6b1" y="485.603891"/>
     <use style="fill:#ff0000;stroke:#ff0000;" x="634.694876" xlink:href="#m49da16a6b1" y="483.759547"/>
     <use style="fill:#ff0000;stroke:#ff0000;" x="644.532893" xlink:href="#m49da16a6b1" y="481.985698"/>
     <use style="fill:#ff0000;stroke:#ff0000;" x="654.370909" xlink:href="#m49da16a6b1" y="480.278542"/>
     <use style="fill:#ff0000;stroke:#ff0000;" x="664.208926" xlink:href="#m49da16a6b1" y="478.634529"/>
     <use style="fill:#ff0000;stroke:#ff0000;" x="674.046942" xlink:href="#m49da16a6b1" y="477.050344"/>
     <use style="fill:#ff0000;stroke:#ff0000;" x="683.884959" xlink:href="#m49da16a6b1" y="475.522886"/>
     <use style="fill:#ff0000;stroke:#ff0000;" x="693.722975" xlink:href="#m49da16a6b1" y="474.049259"/>
     <use style="fill:#ff0000;stroke:#ff0000;" x="703.560992" xlink:href="#m49da16a6b1" y="472.626747"/>
     <use style="fill:#ff0000;stroke:#ff0000;" x="713.399008" xlink:href="#m49da16a6b1" y="471.252812"/>
     <use style="fill:#ff0000;stroke:#ff0000;" x="723.237025" xlink:href="#m49da16a6b1" y="469.925071"/>
     <use style="fill:#ff0000;stroke:#ff0000;" x="733.075041" xlink:href="#m49da16a6b1" y="468.641292"/>
     <use style="fill:#ff0000;stroke:#ff0000;" x="742.913058" xlink:href="#m49da16a6b1" y="467.399376"/>
     <use style="fill:#ff0000;stroke:#ff0000;" x="752.751074" xlink:href="#m49da16a6b1" y="466.197356"/>
     <use style="fill:#ff0000;stroke:#ff0000;" x="762.589091" xlink:href="#m49da16a6b1" y="465.033381"/>
     <use style="fill:#ff0000;stroke:#ff0000;" x="772.427107" xlink:href="#m49da16a6b1" y="463.905707"/>
     <use style="fill:#ff0000;stroke:#ff0000;" x="782.265124" xlink:href="#m49da16a6b1" y="462.812696"/>
     <use style="fill:#ff0000;stroke:#ff0000;" x="792.103141" xlink:href="#m49da16a6b1" y="461.752804"/>
     <use style="fill:#ff0000;stroke:#ff0000;" x="801.941157" xlink:href="#m49da16a6b1" y="460.724572"/>
     <use style="fill:#ff0000;stroke:#ff0000;" x="811.779174" xlink:href="#m49da16a6b1" y="459.726629"/>
     <use style="fill:#ff0000;stroke:#ff0000;" x="821.61719" xlink:href="#m49da16a6b1" y="458.757676"/>
     <use style="fill:#ff0000;stroke:#ff0000;" x="831.455207" xlink:href="#m49da16a6b1" y="457.816487"/>
     <use style="fill:#ff0000;stroke:#ff0000;" x="841.293223" xlink:href="#m49da16a6b1" y="456.901904"/>
     <use style="fill:#ff0000;stroke:#ff0000;" x="851.13124" xlink:href="#m49da16a6b1" y="456.012831"/>
     <use style="fill:#ff0000;stroke:#ff0000;" x="860.969256" xlink:href="#m49da16a6b1" y="455.14823"/>
     <use style="fill:#ff0000;stroke:#ff0000;" x="870.807273" xlink:href="#m49da16a6b1" y="454.307115"/>
     <use style="fill:#ff0000;stroke:#ff0000;" x="880.645289" xlink:href="#m49da16a6b1" y="453.488556"/>
     <use style="fill:#ff0000;stroke:#ff0000;" x="890.483306" xlink:href="#m49da16a6b1" y="452.691669"/>
     <use style="fill:#ff0000;stroke:#ff0000;" x="900.321322" xlink:href="#m49da16a6b1" y="451.915613"/>
     <use style="fill:#ff0000;stroke:#ff0000;" x="910.159339" xlink:href="#m49da16a6b1" y="451.159592"/>
     <use style="fill:#ff0000;stroke:#ff0000;" x="919.997355" xlink:href="#m49da16a6b1" y="450.42285"/>
     <use style="fill:#ff0000;stroke:#ff0000;" x="929.835372" xlink:href="#m49da16a6b1" y="449.704664"/>
     <use style="fill:#ff0000;stroke:#ff0000;" x="939.673388" xlink:href="#m49da16a6b1" y="449.004349"/>
     <use style="fill:#ff0000;stroke:#ff0000;" x="949.511405" xlink:href="#m49da16a6b1" y="448.321255"/>
     <use style="fill:#ff0000;stroke:#ff0000;" x="959.349422" xlink:href="#m49da16a6b1" y="447.654758"/>
     <use style="fill:#ff0000;stroke:#ff0000;" x="969.187438" xlink:href="#m49da16a6b1" y="447.004268"/>
     <use style="fill:#ff0000;stroke:#ff0000;" x="979.025455" xlink:href="#m49da16a6b1" y="446.369219"/>
     <use style="fill:#ff0000;stroke:#ff0000;" x="988.863471" xlink:href="#m49da16a6b1" y="445.749073"/>
     <use style="fill:#ff0000;stroke:#ff0000;" x="998.701488" xlink:href="#m49da16a6b1" y="445.143315"/>
     <use style="fill:#ff0000;stroke:#ff0000;" x="1008.539504" xlink:href="#m49da16a6b1" y="444.551455"/>
     <use style="fill:#ff0000;stroke:#ff0000;" x="1018.377521" xlink:href="#m49da16a6b1" y="443.973024"/>
     <use style="fill:#ff0000;stroke:#ff0000;" x="1028.215537" xlink:href="#m49da16a6b1" y="443.407574"/>
     <use style="fill:#ff0000;stroke:#ff0000;" x="1038.053554" xlink:href="#m49da16a6b1" y="442.854674"/>
     <use style="fill:#ff0000;stroke:#ff0000;" x="1047.89157" xlink:href="#m49da16a6b1" y="442.313917"/>
     <use style="fill:#ff0000;stroke:#ff0000;" x="1057.729587" xlink:href="#m49da16a6b1" y="441.784906"/>
     <use style="fill:#ff0000;stroke:#ff0000;" x="1067.567603" xlink:href="#m49da16a6b1" y="441.267269"/>
     <use style="fill:#ff0000;stroke:#ff0000;" x="1077.40562" xlink:href="#m49da16a6b1" y="440.760644"/>
     <use style="fill:#ff0000;stroke:#ff0000;" x="1087.243636" xlink:href="#m49da16a6b1" y="440.264685"/>
     <use style="fill:#ff0000;stroke:#ff0000;" x="1097.081653" xlink:href="#m49da16a6b1" y="439.779061"/>
     <use style="fill:#ff0000;stroke:#ff0000;" x="1106.919669" xlink:href="#m49da16a6b1" y="439.303454"/>
     <use style="fill:#ff0000;stroke:#ff0000;" x="1116.757686" xlink:href="#m49da16a6b1" y="438.837561"/>
     <use style="fill:#ff0000;stroke:#ff0000;" x="1126.595702" xlink:href="#m49da16a6b1" y="438.381088"/>
     <use style="fill:#ff0000;stroke:#ff0000;" x="1136.433719" xlink:href="#m49da16a6b1" y="437.933753"/>
     <use style="fill:#ff0000;stroke:#ff0000;" x="1146.271736" xlink:href="#m49da16a6b1" y="437.495286"/>
     <use style="fill:#ff0000;stroke:#ff0000;" x="1156.109752" xlink:href="#m49da16a6b1" y="437.065428"/>
     <use style="fill:#ff0000;stroke:#ff0000;" x="1165.947769" xlink:href="#m49da16a6b1" y="436.64393"/>
     <use style="fill:#ff0000;stroke:#ff0000;" x="1175.785785" xlink:href="#m49da16a6b1" y="436.23055"/>
     <use style="fill:#ff0000;stroke:#ff0000;" x="1185.623802" xlink:href="#m49da16a6b1" y="435.825057"/>
     <use style="fill:#ff0000;stroke:#ff0000;" x="1195.461818" xlink:href="#m49da16a6b1" y="435.42723"/>
    </g>
   </g>
   <g id="patch_3">
    <path d="M 172.8 627.984 
L 172.8 84.672 
" style="fill:none;stroke:#000000;stroke-linecap:square;stroke-linejoin:miter;stroke-width:0.8;"/>
   </g>
   <g id="patch_4">
    <path d="M 1244.16 627.984 
L 1244.16 84.672 
" style="fill:none;stroke:#000000;stroke-linecap:square;stroke-linejoin:miter;stroke-width:0.8;"/>
   </g>
   <g id="patch_5">
    <path d="M 172.8 627.984 
L 1244.16 627.984 
" style="fill:none;stroke:#000000;stroke-linecap:square;stroke-linejoin:miter;stroke-width:0.8;"/>
   </g>
   <g id="patch_6">
    <path d="M 172.8 84.672 
L 1244.16 84.672 
" style="fill:none;stroke:#000000;stroke-linecap:square;stroke-linejoin:miter;stroke-width:0.8;"/>
   </g>
   <g id="text_15">
    <!-- Inspecting self-consistent conductance results at capactive=0.300 [eV] -->
    <defs>
     <path d="M 9.8125 72.90625 
L 19.671875 72.90625 
L 19.671875 0 
L 9.8125 0 
z
" id="DejaVuSans-49"/>
     <path d="M 44.28125 53.078125 
L 44.28125 44.578125 
Q 40.484375 46.53125 36.375 47.5 
Q 32.28125 48.484375 27.875 48.484375 
Q 21.1875 48.484375 17.84375 46.4375 
Q 14.5 44.390625 14.5 40.28125 
Q 14.5 37.15625 16.890625 35.375 
Q 19.28125 33.59375 26.515625 31.984375 
L 29.59375 31.296875 
Q 39.15625 29.25 43.1875 25.515625 
Q 47.21875 21.78125 47.21875 15.09375 
Q 47.21875 7.46875 41.1875 3.015625 
Q 35.15625 -1.421875 24.609375 -1.421875 
Q 20.21875 -1.421875 15.453125 -0.5625 
Q 10.6875 0.296875 5.421875 2 
L 5.421875 11.28125 
Q 10.40625 8.6875 15.234375 7.390625 
Q 20.0625 6.109375 24.8125 6.109375 
Q 31.15625 6.109375 34.5625 8.28125 
Q 37.984375 10.453125 37.984375 14.40625 
Q 37.984375 18.0625 35.515625 20.015625 
Q 33.0625 21.96875 24.703125 23.78125 
L 21.578125 24.515625 
Q 13.234375 26.265625 9.515625 29.90625 
Q 5.8125 33.546875 5.8125 39.890625 
Q 5.8125 47.609375 11.28125 51.796875 
Q 16.75 56 26.8125 56 
Q 31.78125 56 36.171875 55.265625 
Q 40.578125 54.546875 44.28125 53.078125 
" id="DejaVuSans-73"/>
     <path d="M 18.109375 8.203125 
L 18.109375 -20.796875 
L 9.078125 -20.796875 
L 9.078125 54.6875 
L 18.109375 54.6875 
L 18.109375 46.390625 
Q 20.953125 51.265625 25.265625 53.625 
Q 29.59375 56 35.59375 56 
Q 45.5625 56 51.78125 48.09375 
Q 58.015625 40.1875 58.015625 27.296875 
Q 58.015625 14.40625 51.78125 6.484375 
Q 45.5625 -1.421875 35.59375 -1.421875 
Q 29.59375 -1.421875 25.265625 0.953125 
Q 20.953125 3.328125 18.109375 8.203125 
M 48.6875 27.296875 
Q 48.6875 37.203125 44.609375 42.84375 
Q 40.53125 48.484375 33.40625 48.484375 
Q 26.265625 48.484375 22.1875 42.84375 
Q 18.109375 37.203125 18.109375 27.296875 
Q 18.109375 17.390625 22.1875 11.75 
Q 26.265625 6.109375 33.40625 6.109375 
Q 40.53125 6.109375 44.609375 11.75 
Q 48.6875 17.390625 48.6875 27.296875 
" id="DejaVuSans-70"/>
     <path d="M 45.40625 27.984375 
Q 45.40625 37.75 41.375 43.109375 
Q 37.359375 48.484375 30.078125 48.484375 
Q 22.859375 48.484375 18.828125 43.109375 
Q 14.796875 37.75 14.796875 27.984375 
Q 14.796875 18.265625 18.828125 12.890625 
Q 22.859375 7.515625 30.078125 7.515625 
Q 37.359375 7.515625 41.375 12.890625 
Q 45.40625 18.265625 45.40625 27.984375 
M 54.390625 6.78125 
Q 54.390625 -7.171875 48.1875 -13.984375 
Q 42 -20.796875 29.203125 -20.796875 
Q 24.46875 -20.796875 20.265625 -20.09375 
Q 16.0625 -19.390625 12.109375 -17.921875 
L 12.109375 -9.1875 
Q 16.0625 -11.328125 19.921875 -12.34375 
Q 23.78125 -13.375 27.78125 -13.375 
Q 36.625 -13.375 41.015625 -8.765625 
Q 45.40625 -4.15625 45.40625 5.171875 
L 45.40625 9.625 
Q 42.625 4.78125 38.28125 2.390625 
Q 33.9375 0 27.875 0 
Q 17.828125 0 11.671875 7.65625 
Q 5.515625 15.328125 5.515625 27.984375 
Q 5.515625 40.671875 11.671875 48.328125 
Q 17.828125 56 27.875 56 
Q 33.9375 56 38.28125 53.609375 
Q 42.625 51.21875 45.40625 46.390625 
L 45.40625 54.6875 
L 54.390625 54.6875 
z
" id="DejaVuSans-67"/>
     <path d="M 9.421875 75.984375 
L 18.40625 75.984375 
L 18.40625 0 
L 9.421875 0 
z
" id="DejaVuSans-6c"/>
     <path d="M 37.109375 75.984375 
L 37.109375 68.5 
L 28.515625 68.5 
Q 23.6875 68.5 21.796875 66.546875 
Q 19.921875 64.59375 19.921875 59.515625 
L 19.921875 54.6875 
L 34.71875 54.6875 
L 34.71875 47.703125 
L 19.921875 47.703125 
L 19.921875 0 
L 10.890625 0 
L 10.890625 47.703125 
L 2.296875 47.703125 
L 2.296875 54.6875 
L 10.890625 54.6875 
L 10.890625 58.5 
Q 10.890625 67.625 15.140625 71.796875 
Q 19.390625 75.984375 28.609375 75.984375 
z
" id="DejaVuSans-66"/>
     <path d="M 4.890625 31.390625 
L 31.203125 31.390625 
L 31.203125 23.390625 
L 4.890625 23.390625 
z
" id="DejaVuSans-2d"/>
     <path d="M 2.984375 54.6875 
L 12.5 54.6875 
L 29.59375 8.796875 
L 46.6875 54.6875 
L 56.203125 54.6875 
L 35.6875 0 
L 23.484375 0 
z
" id="DejaVuSans-76"/>
     <path d="M 10.59375 45.40625 
L 73.1875 45.40625 
L 73.1875 37.203125 
L 10.59375 37.203125 
z
M 10.59375 25.484375 
L 73.1875 25.484375 
L 73.1875 17.1875 
L 10.59375 17.1875 
z
" id="DejaVuSans-3d"/>
     <path d="M 40.578125 39.3125 
Q 47.65625 37.796875 51.625 33 
Q 55.609375 28.21875 55.609375 21.1875 
Q 55.609375 10.40625 48.1875 4.484375 
Q 40.765625 -1.421875 27.09375 -1.421875 
Q 22.515625 -1.421875 17.65625 -0.515625 
Q 12.796875 0.390625 7.625 2.203125 
L 7.625 11.71875 
Q 11.71875 9.328125 16.59375 8.109375 
Q 21.484375 6.890625 26.8125 6.890625 
Q 36.078125 6.890625 40.9375 10.546875 
Q 45.796875 14.203125 45.796875 21.1875 
Q 45.796875 27.640625 41.28125 31.265625 
Q 36.765625 34.90625 28.71875 34.90625 
L 20.21875 34.90625 
L 20.21875 43.015625 
L 29.109375 43.015625 
Q 36.375 43.015625 40.234375 45.921875 
Q 44.09375 48.828125 44.09375 54.296875 
Q 44.09375 59.90625 40.109375 62.90625 
Q 36.140625 65.921875 28.71875 65.921875 
Q 24.65625 65.921875 20.015625 65.03125 
Q 15.375 64.15625 9.8125 62.3125 
L 9.8125 71.09375 
Q 15.4375 72.65625 20.34375 73.4375 
Q 25.25 74.21875 29.59375 74.21875 
Q 40.828125 74.21875 47.359375 69.109375 
Q 53.90625 64.015625 53.90625 55.328125 
Q 53.90625 49.265625 50.4375 45.09375 
Q 46.96875 40.921875 40.578125 39.3125 
" id="DejaVuSans-33"/>
     <path d="M 28.609375 0 
L 0.78125 72.90625 
L 11.078125 72.90625 
L 34.1875 11.53125 
L 57.328125 72.90625 
L 67.578125 72.90625 
L 39.796875 0 
z
" id="DejaVuSans-56"/>
    </defs>
    <g transform="translate(493.793437 78.672)scale(0.12 -0.12)">
     <use xlink:href="#DejaVuSans-49"/>
     <use x="29.492188" xlink:href="#DejaVuSans-6e"/>
     <use x="92.871094" xlink:href="#DejaVuSans-73"/>
     <use x="144.970703" xlink:href="#DejaVuSans-70"/>
     <use x="208.447266" xlink:href="#DejaVuSans-65"/>
     <use x="269.970703" xlink:href="#DejaVuSans-63"/>
     <use x="324.951172" xlink:href="#DejaVuSans-74"/>
     <use x="364.160156" xlink:href="#DejaVuSans-69"/>
     <use x="391.943359" xlink:href="#DejaVuSans-6e"/>
     <use x="455.322266" xlink:href="#DejaVuSans-67"/>
     <use x="518.798828" xlink:href="#DejaVuSans-20"/>
     <use x="550.585938" xlink:href="#DejaVuSans-73"/>
     <use x="602.685547" xlink:href="#DejaVuSans-65"/>
     <use x="664.208984" xlink:href="#DejaVuSans-6c"/>
     <use x="691.992188" xlink:href="#DejaVuSans-66"/>
     <use x="727.119141" xlink:href="#DejaVuSans-2d"/>
     <use x="763.203125" xlink:href="#DejaVuSans-63"/>
     <use x="818.183594" xlink:href="#DejaVuSans-6f"/>
     <use x="879.365234" xlink:href="#DejaVuSans-6e"/>
     <use x="942.744141" xlink:href="#DejaVuSans-73"/>
     <use x="994.84375" xlink:href="#DejaVuSans-69"/>
     <use x="1022.626953" xlink:href="#DejaVuSans-73"/>
     <use x="1074.726562" xlink:href="#DejaVuSans-74"/>
     <use x="1113.935547" xlink:href="#DejaVuSans-65"/>
     <use x="1175.458984" xlink:href="#DejaVuSans-6e"/>
     <use x="1238.837891" xlink:href="#DejaVuSans-74"/>
     <use x="1278.046875" xlink:href="#DejaVuSans-20"/>
     <use x="1309.833984" xlink:href="#DejaVuSans-63"/>
     <use x="1364.814453" xlink:href="#DejaVuSans-6f"/>
     <use x="1425.996094" xlink:href="#DejaVuSans-6e"/>
     <use x="1489.375" xlink:href="#DejaVuSans-64"/>
     <use x="1552.851562" xlink:href="#DejaVuSans-75"/>
     <use x="1616.230469" xlink:href="#DejaVuSans-63"/>
     <use x="1671.210938" xlink:href="#DejaVuSans-74"/>
     <use x="1710.419922" xlink:href="#DejaVuSans-61"/>
     <use x="1771.699219" xlink:href="#DejaVuSans-6e"/>
     <use x="1835.078125" xlink:href="#DejaVuSans-63"/>
     <use x="1890.058594" xlink:href="#DejaVuSans-65"/>
     <use x="1951.582031" xlink:href="#DejaVuSans-20"/>
     <use x="1983.369141" xlink:href="#DejaVuSans-72"/>
     <use x="2024.451172" xlink:href="#DejaVuSans-65"/>
     <use x="2085.974609" xlink:href="#DejaVuSans-73"/>
     <use x="2138.074219" xlink:href="#DejaVuSans-75"/>
     <use x="2201.453125" xlink:href="#DejaVuSans-6c"/>
     <use x="2229.236328" xlink:href="#DejaVuSans-74"/>
     <use x="2268.445312" xlink:href="#DejaVuSans-73"/>
     <use x="2320.544922" xlink:href="#DejaVuSans-20"/>
     <use x="2352.332031" xlink:href="#DejaVuSans-61"/>
     <use x="2413.611328" xlink:href="#DejaVuSans-74"/>
     <use x="2452.820312" xlink:href="#DejaVuSans-20"/>
     <use x="2484.607422" xlink:href="#DejaVuSans-63"/>
     <use x="2539.587891" xlink:href="#DejaVuSans-61"/>
     <use x="2600.867188" xlink:href="#DejaVuSans-70"/>
     <use x="2664.34375" xlink:href="#DejaVuSans-61"/>
     <use x="2725.623047" xlink:href="#DejaVuSans-63"/>
     <use x="2780.603516" xlink:href="#DejaVuSans-74"/>
     <use x="2819.8125" xlink:href="#DejaVuSans-69"/>
     <use x="2847.595703" xlink:href="#DejaVuSans-76"/>
     <use x="2906.775391" xlink:href="#DejaVuSans-65"/>
     <use x="2968.298828" xlink:href="#DejaVuSans-3d"/>
     <use x="3052.087891" xlink:href="#DejaVuSans-30"/>
     <use x="3115.710938" xlink:href="#DejaVuSans-2e"/>
     <use x="3147.498047" xlink:href="#DejaVuSans-33"/>
     <use x="3211.121094" xlink:href="#DejaVuSans-30"/>
     <use x="3274.744141" xlink:href="#DejaVuSans-30"/>
     <use x="3338.367188" xlink:href="#DejaVuSans-20"/>
     <use x="3370.154297" xlink:href="#DejaVuSans-5b"/>
     <use x="3409.167969" xlink:href="#DejaVuSans-65"/>
     <use x="3470.691406" xlink:href="#DejaVuSans-56"/>
     <use x="3539.099609" xlink:href="#DejaVuSans-5d"/>
    </g>
   </g>
   <g id="legend_1">
    <g id="patch_7">
     <path d="M 1192.46 107.350125 
L 1237.16 107.350125 
Q 1239.16 107.350125 1239.16 105.350125 
L 1239.16 91.672 
Q 1239.16 89.672 1237.16 89.672 
L 1192.46 89.672 
Q 1190.46 89.672 1190.46 91.672 
L 1190.46 105.350125 
Q 1190.46 107.350125 1192.46 107.350125 
z
" style="fill:#ffffff;opacity:0.8;stroke:#cccccc;stroke-linejoin:miter;"/>
    </g>
    <g id="line2d_14"/>
    <g id="line2d_15">
     <g>
      <use style="fill:#ff0000;stroke:#ff0000;" x="1204.46" xlink:href="#m49da16a6b1" y="97.770438"/>
     </g>
    </g>
    <g id="text_16">
     <!-- n0 -->
     <g transform="translate(1222.46 101.270438)scale(0.1 -0.1)">
      <use xlink:href="#DejaVuSans-6e"/>
      <use x="63.378906" xlink:href="#DejaVuSans-30"/>
     </g>
    </g>
   </g>
  </g>
 </g>
 <defs>
  <clipPath id="p2e806f7e13">
   <rect height="543.312" width="1071.36" x="172.8" y="84.672"/>
  </clipPath>
 </defs>
</svg>
